<svg width="61" height="62" viewBox="0 0 61 62" fill="none" xmlns="http://www.w3.org/2000/svg">
<g filter="url(#filter0_d_973_5405)">
<path d="M42.1992 11H18.7969C14.4909 11 11 14.5822 11 18.9965V42.9977C11 47.4198 14.4909 51 18.7969 51H42.1993C46.509 51 50 47.4198 50 42.9977V18.9965C50 14.5822 46.509 11 42.1992 11ZM46.1034 40.9975C46.1034 44.3122 43.479 47.0018 40.249 47.0018H20.7509C17.5171 47.0018 14.8984 44.3122 14.8984 40.9975V21.0005C14.8984 17.6839 17.5171 14.9982 20.7509 14.9982H40.249C43.479 14.9982 46.1034 17.6839 46.1034 21.0005V40.9975ZM38.1122 27.698C40.0395 24.7233 40.828 22.2759 39.9157 21.3403C39.0072 20.4087 36.621 21.2153 33.7167 23.194C33.0215 19.4633 31.8465 16.9984 30.4981 16.9984C29.1535 16.9984 27.9784 19.4634 27.2795 23.194C24.3808 21.2153 21.9926 20.4087 21.0804 21.3403C20.172 22.2759 20.9604 24.7233 22.8878 27.698C19.2501 28.4149 16.8467 29.618 16.8467 30.997C16.8467 32.3819 19.2502 33.587 22.8878 34.298C20.9605 37.2767 20.172 39.724 21.0804 40.6557C21.9926 41.5913 24.3808 40.7826 27.2795 38.806C27.9784 42.5328 29.1535 45.0017 30.4981 45.0017C31.8465 45.0017 33.0215 42.5327 33.7167 38.806C36.621 40.7826 39.0073 41.5913 39.9157 40.6557C40.828 39.724 40.0395 37.2766 38.1122 34.298C41.7459 33.587 44.1532 32.3819 44.1532 30.997C44.1532 29.6181 41.7459 28.415 38.1122 27.698ZM30.4981 35.0012C28.3479 35.0012 26.5996 33.2081 26.5996 30.997C26.5996 28.7918 28.3479 26.9989 30.4981 26.9989C32.6539 26.9989 34.4022 28.7919 34.4022 30.997C34.4022 33.2081 32.6539 35.0012 30.4981 35.0012Z" fill="#F1F1F1"/>
</g>
<defs>
<filter id="filter0_d_973_5405" x="0" y="0" width="61" height="62" filterUnits="userSpaceOnUse" color-interpolation-filters="sRGB">
<feFlood flood-opacity="0" result="BackgroundImageFix"/>
<feColorMatrix in="SourceAlpha" type="matrix" values="0 0 0 0 0 0 0 0 0 0 0 0 0 0 0 0 0 0 127 0" result="hardAlpha"/>
<feOffset/>
<feGaussianBlur stdDeviation="5.5"/>
<feComposite in2="hardAlpha" operator="out"/>
<feColorMatrix type="matrix" values="0 0 0 0 0.77 0 0 0 0 0.7125 0 0 0 0 1 0 0 0 0.8 0"/>
<feBlend mode="normal" in2="BackgroundImageFix" result="effect1_dropShadow_973_5405"/>
<feBlend mode="normal" in="SourceGraphic" in2="effect1_dropShadow_973_5405" result="shape"/>
</filter>
</defs>
</svg>
