<svg width="85" height="85" viewBox="0 0 85 85" fill="none" xmlns="http://www.w3.org/2000/svg">
<g filter="url(#filter0_dd_973_5410)">
<path d="M42.5 27.3639C40.255 27.3633 38.0381 27.8621 36.0097 28.8242C33.9813 29.7862 32.1923 31.1874 30.7724 32.9262C29.3524 34.665 28.337 36.6979 27.7998 38.8777C27.2625 41.0574 27.2168 43.3293 27.6661 45.5289C27.7548 45.966 27.6663 46.4204 27.4199 46.7922C27.1736 47.164 26.7897 47.4227 26.3526 47.5114C25.9155 47.6002 25.4611 47.5116 25.0893 47.2653C24.7175 47.019 24.4587 46.635 24.37 46.1979C24.1233 44.9811 24 43.7416 24 42.5C24 32.2839 32.2839 24 42.5 24C45.9811 24 49.2443 24.9641 52.0254 26.6383C53.3358 25.8469 54.5507 25.2374 55.6083 24.8829C56.2537 24.666 56.9341 24.5129 57.5878 24.5211C58.2517 24.5293 59.0441 24.7112 59.6659 25.333C60.2888 25.9559 60.4707 26.7483 60.4779 27.4122C60.4871 28.0669 60.334 28.7463 60.1171 29.3938C59.7636 30.4493 59.1531 31.6641 58.3617 32.9746C60.0924 35.8501 61.0047 39.1438 61 42.5C61 52.7161 52.7161 61 42.5 61C39.0189 61 35.7557 60.0359 32.9746 58.3617C31.6641 59.1531 30.4493 59.7626 29.3917 60.1171C28.7463 60.334 28.0659 60.4871 27.4122 60.4789C26.7493 60.4707 25.9559 60.2888 25.3341 59.667C24.7112 59.0441 24.5293 58.2517 24.5221 57.5878C24.5129 56.9321 24.666 56.2537 24.8829 55.6062C25.3207 54.3061 26.1429 52.7644 27.2169 51.1004C29.5911 47.4292 33.4453 42.7857 38.1155 38.1155C41.8813 34.3497 45.6265 31.1174 48.8619 28.7617C46.8685 27.8377 44.6972 27.3606 42.5 27.3639ZM56.6761 28.0721C55.7624 28.3773 54.4952 29.0299 52.9268 30.0423C49.5135 32.2489 45.0561 35.9325 40.4938 40.4938C35.9325 45.0571 32.2489 49.5146 30.0423 52.9268C29.0299 54.4952 28.3773 55.7635 28.0721 56.6761C28.0279 56.8097 27.9929 56.93 27.9662 57.0338C28.07 57.0071 28.1892 56.9721 28.3239 56.9269C29.2376 56.6227 30.5048 55.9701 32.0732 54.9587C32.352 54.7781 32.6781 54.6842 33.0103 54.6888C33.3425 54.6934 33.6659 54.7962 33.9396 54.9844C36.4579 56.7165 39.4436 57.6414 42.5 57.6361C50.8599 57.6361 57.6361 50.8599 57.6361 42.5C57.6416 39.4432 56.7167 36.4571 54.9844 33.9386C54.7963 33.665 54.6934 33.3419 54.6886 33.0099C54.6838 32.678 54.7775 32.352 54.9577 32.0732C55.97 30.5048 56.6227 29.2365 56.9279 28.3239C56.9721 28.1902 57.0071 28.07 57.0338 27.9662C56.9133 27.9972 56.794 28.0325 56.6761 28.0721Z" fill="url(#paint0_linear_973_5410)"/>
</g>
<g filter="url(#filter1_dd_973_5410)">
<path d="M45.2079 46.0454C44.8778 46.0454 44.5508 46.1053 44.2458 46.2219C43.9408 46.3385 43.6636 46.5094 43.4302 46.7249C43.1967 46.9404 43.0115 47.1962 42.8852 47.4778C42.7588 47.7593 42.6938 48.0611 42.6938 48.3658C42.6938 48.6706 42.7588 48.9723 42.8852 49.2539C43.0115 49.5354 43.1967 49.7912 43.4302 50.0067C43.6636 50.2222 43.9408 50.3931 44.2458 50.5097C44.5508 50.6263 44.8778 50.6863 45.2079 50.6862C45.8745 50.6861 46.5139 50.4416 46.9852 50.0065C47.4566 49.5713 47.7214 48.9812 47.7214 48.3658C47.7214 47.7504 47.4566 47.1603 46.9852 46.7251C46.5139 46.29 45.8745 46.0455 45.2079 46.0454ZM39.342 48.3658C39.342 46.9298 39.96 45.5525 41.0601 44.5371C42.1602 43.5216 43.6522 42.9512 45.2079 42.9512C46.7636 42.9512 48.2556 43.5216 49.3557 44.5371C50.4557 45.5525 51.0737 46.9298 51.0737 48.3658C51.0737 49.8019 50.4557 51.1791 49.3557 52.1945C48.2556 53.21 46.7636 53.7804 45.2079 53.7804C43.6522 53.7804 42.1602 53.21 41.0601 52.1945C39.96 51.1791 39.342 49.8019 39.342 48.3658Z" fill="url(#paint1_linear_973_5410)"/>
</g>
<defs>
<filter id="filter0_dd_973_5410" x="0" y="0" width="85" height="85" filterUnits="userSpaceOnUse" color-interpolation-filters="sRGB">
<feFlood flood-opacity="0" result="BackgroundImageFix"/>
<feColorMatrix in="SourceAlpha" type="matrix" values="0 0 0 0 0 0 0 0 0 0 0 0 0 0 0 0 0 0 127 0" result="hardAlpha"/>
<feOffset/>
<feGaussianBlur stdDeviation="5.5"/>
<feComposite in2="hardAlpha" operator="out"/>
<feColorMatrix type="matrix" values="0 0 0 0 0.77 0 0 0 0 0.7125 0 0 0 0 1 0 0 0 0.8 0"/>
<feBlend mode="normal" in2="BackgroundImageFix" result="effect1_dropShadow_973_5410"/>
<feColorMatrix in="SourceAlpha" type="matrix" values="0 0 0 0 0 0 0 0 0 0 0 0 0 0 0 0 0 0 127 0" result="hardAlpha"/>
<feOffset/>
<feGaussianBlur stdDeviation="12"/>
<feComposite in2="hardAlpha" operator="out"/>
<feColorMatrix type="matrix" values="0 0 0 0 0.720833 0 0 0 0 0.441667 0 0 0 0 1 0 0 0 1 0"/>
<feBlend mode="normal" in2="effect1_dropShadow_973_5410" result="effect2_dropShadow_973_5410"/>
<feBlend mode="normal" in="SourceGraphic" in2="effect2_dropShadow_973_5410" result="shape"/>
</filter>
<filter id="filter1_dd_973_5410" x="15.342" y="18.9512" width="59.7317" height="58.8293" filterUnits="userSpaceOnUse" color-interpolation-filters="sRGB">
<feFlood flood-opacity="0" result="BackgroundImageFix"/>
<feColorMatrix in="SourceAlpha" type="matrix" values="0 0 0 0 0 0 0 0 0 0 0 0 0 0 0 0 0 0 127 0" result="hardAlpha"/>
<feOffset/>
<feGaussianBlur stdDeviation="5.5"/>
<feComposite in2="hardAlpha" operator="out"/>
<feColorMatrix type="matrix" values="0 0 0 0 0.77 0 0 0 0 0.7125 0 0 0 0 1 0 0 0 0.8 0"/>
<feBlend mode="normal" in2="BackgroundImageFix" result="effect1_dropShadow_973_5410"/>
<feColorMatrix in="SourceAlpha" type="matrix" values="0 0 0 0 0 0 0 0 0 0 0 0 0 0 0 0 0 0 127 0" result="hardAlpha"/>
<feOffset/>
<feGaussianBlur stdDeviation="12"/>
<feComposite in2="hardAlpha" operator="out"/>
<feColorMatrix type="matrix" values="0 0 0 0 0.720833 0 0 0 0 0.441667 0 0 0 0 1 0 0 0 1 0"/>
<feBlend mode="normal" in2="effect1_dropShadow_973_5410" result="effect2_dropShadow_973_5410"/>
<feBlend mode="normal" in="SourceGraphic" in2="effect2_dropShadow_973_5410" result="shape"/>
</filter>
<linearGradient id="paint0_linear_973_5410" x1="26.6429" y1="18.4206" x2="62.85" y2="61.8393" gradientUnits="userSpaceOnUse">
<stop offset="0.307292" stop-color="white"/>
<stop offset="0.932292" stop-color="#D7A5FF"/>
</linearGradient>
<linearGradient id="paint1_linear_973_5410" x1="40.18" y1="41.3182" x2="50.5939" y2="54.847" gradientUnits="userSpaceOnUse">
<stop offset="0.307292" stop-color="white"/>
<stop offset="0.932292" stop-color="#D7A5FF"/>
</linearGradient>
</defs>
</svg>
