<svg width="102" height="102" viewBox="0 0 102 102" fill="none" xmlns="http://www.w3.org/2000/svg">
<g filter="url(#filter0_d_640_3222)">
<mask id="path-1-outside-1_640_3222" maskUnits="userSpaceOnUse" x="20" y="20" width="62" height="62" fill="black">
<rect fill="white" x="20" y="20" width="62" height="62"/>
<path fill-rule="evenodd" clip-rule="evenodd" d="M80.998 51.4347C80.9974 51.4347 80.9969 51.4342 80.9969 51.4336C80.999 51.2893 81 51.1448 81 51C81 34.4315 67.5685 21 51 21C34.4315 21 21 34.4315 21 51C21 67.4226 34.1958 80.7631 50.5628 80.9969C50.5636 80.9969 50.5643 80.9976 50.5643 80.9984C50.5643 80.9993 50.565 80.9999 50.5659 80.9999H50.9428C50.9618 81 50.9809 81 51 81C51.0191 81 51.0382 81 51.0572 80.9999H79.9991C80.5514 80.9999 80.9991 80.5522 80.9991 79.9999V51.4358C80.9991 51.4352 80.9986 51.4347 80.998 51.4347Z"/>
</mask>
<path fill-rule="evenodd" clip-rule="evenodd" d="M80.998 51.4347C80.9974 51.4347 80.9969 51.4342 80.9969 51.4336C80.999 51.2893 81 51.1448 81 51C81 34.4315 67.5685 21 51 21C34.4315 21 21 34.4315 21 51C21 67.4226 34.1958 80.7631 50.5628 80.9969C50.5636 80.9969 50.5643 80.9976 50.5643 80.9984C50.5643 80.9993 50.565 80.9999 50.5659 80.9999H50.9428C50.9618 81 50.9809 81 51 81C51.0191 81 51.0382 81 51.0572 80.9999H79.9991C80.5514 80.9999 80.9991 80.5522 80.9991 79.9999V51.4358C80.9991 51.4352 80.9986 51.4347 80.998 51.4347Z" fill="url(#paint0_linear_640_3222)"/>
<path d="M50.9428 80.9999L50.9442 80.1999H50.9428V80.9999ZM51.0572 80.9999V80.1999L51.0558 80.1999L51.0572 80.9999ZM50.5628 80.9969L50.5742 80.197L50.5628 80.9969ZM80.9969 51.4336L80.197 51.4223L80.9969 51.4336ZM80.2 51C80.2 51.141 80.199 51.2818 80.197 51.4223L81.7968 51.445C81.799 51.2969 81.8 51.1486 81.8 51H80.2ZM51 21.8C67.1267 21.8 80.2 34.8733 80.2 51H81.8C81.8 33.9896 68.0104 20.2 51 20.2V21.8ZM21.8 51C21.8 34.8733 34.8733 21.8 51 21.8V20.2C33.9896 20.2 20.2 33.9896 20.2 51H21.8ZM50.5742 80.197C34.644 79.9694 21.8 66.9846 21.8 51H20.2C20.2 67.8606 33.7477 81.5568 50.5514 81.7968L50.5742 80.197ZM50.9428 80.1999H50.5659V81.7999H50.9428V80.1999ZM51 80.2C50.9815 80.2 50.9629 80.2 50.9442 80.1999L50.9413 81.7999C50.9608 81.8 50.9804 81.8 51 81.8V80.2ZM51.0558 80.1999C51.0371 80.2 51.0185 80.2 51 80.2V81.8C51.0196 81.8 51.0392 81.8 51.0587 81.7999L51.0558 80.1999ZM79.9991 80.1999H51.0572V81.7999H79.9991V80.1999ZM80.1991 51.4358V79.9999H81.7991V51.4358H80.1991ZM81.7991 51.4358C81.7991 50.9934 81.4404 50.6347 80.998 50.6347V52.2347C80.5568 52.2347 80.1991 51.877 80.1991 51.4358H81.7991ZM49.7643 80.9984C49.7643 81.4411 50.1232 81.7999 50.5659 81.7999V80.1999C51.0069 80.1999 51.3643 80.5574 51.3643 80.9984H49.7643ZM79.9991 81.7999C80.9932 81.7999 81.7991 80.9941 81.7991 79.9999H80.1991C80.1991 80.1104 80.1096 80.1999 79.9991 80.1999V81.7999ZM50.5514 81.7968C50.1206 81.7906 49.7643 81.4407 49.7643 80.9984H51.3643C51.3643 80.5545 51.0067 80.2031 50.5742 80.197L50.5514 81.7968ZM80.197 51.4223C80.1907 51.8691 80.5512 52.2347 80.998 52.2347V50.6347C81.4437 50.6347 81.8032 50.9993 81.7968 51.445L80.197 51.4223Z" fill="#F1F1F1" mask="url(#path-1-outside-1_640_3222)"/>
</g>
<g filter="url(#filter1_d_640_3222)">
<mask id="path-3-outside-2_640_3222" maskUnits="userSpaceOnUse" x="22" y="22" width="58" height="58" fill="black">
<rect fill="white" x="22" y="22" width="58" height="58"/>
<path fill-rule="evenodd" clip-rule="evenodd" d="M78.9982 51.4058C78.9976 51.4058 78.9971 51.4053 78.9971 51.4047C78.999 51.2701 79 51.1351 79 51C79 35.536 66.464 23 51 23C35.536 23 23 35.536 23 51C23 66.3278 35.3161 78.7789 50.592 78.9971C50.5928 78.9971 50.5935 78.9978 50.5935 78.9986C50.5935 78.9994 50.5941 79 50.595 79H77.9993C78.5516 79 78.9993 78.5523 78.9993 78V51.4069C78.9993 51.4063 78.9988 51.4058 78.9982 51.4058Z"/>
</mask>
<path d="M50.592 78.9971L50.5949 78.7971L50.592 78.9971ZM78.9971 51.4047L78.7972 51.4019L78.9971 51.4047ZM78.8 51C78.8 51.1342 78.799 51.2682 78.7972 51.4019L79.1971 51.4076C79.199 51.2719 79.2 51.1361 79.2 51H78.8ZM51 23.2C66.3535 23.2 78.8 35.6465 78.8 51H79.2C79.2 35.4256 66.5744 22.8 51 22.8V23.2ZM23.2 51C23.2 35.6465 35.6465 23.2 51 23.2V22.8C35.4256 22.8 22.8 35.4256 22.8 51H23.2ZM50.5949 78.7971C35.4282 78.5805 23.2 66.2183 23.2 51H22.8C22.8 66.4373 35.2041 78.9773 50.5892 79.1971L50.5949 78.7971ZM77.9993 78.8H50.595V79.2H77.9993V78.8ZM78.7993 51.4069V78H79.1993V51.4069H78.7993ZM79.1993 51.4069C79.1993 51.2959 79.1093 51.2058 78.9982 51.2058V51.6058C78.8883 51.6058 78.7993 51.5168 78.7993 51.4069H79.1993ZM50.3935 78.9986C50.3935 79.1098 50.4837 79.2 50.595 79.2V78.8C50.7046 78.8 50.7935 78.8889 50.7935 78.9986H50.3935ZM50.5892 79.1971C50.4821 79.1955 50.3935 79.1085 50.3935 78.9986H50.7935C50.7935 78.887 50.7036 78.7987 50.5949 78.7971L50.5892 79.1971ZM77.9993 79.2C78.662 79.2 79.1993 78.6628 79.1993 78H78.7993C78.7993 78.4419 78.4411 78.8 77.9993 78.8V79.2ZM78.7972 51.4019C78.7956 51.5141 78.8861 51.6058 78.9982 51.6058V51.2058C79.1092 51.2058 79.1987 51.2966 79.1971 51.4076L78.7972 51.4019Z" fill="#F1F1F1" mask="url(#path-3-outside-2_640_3222)"/>
</g>
<path d="M60.8252 63.8574C60.5828 64.1765 60.2822 64.4294 59.9232 64.6161C59.5642 64.8027 59.1843 64.9489 58.7836 65.0547C57.3619 65.43 56.0553 65.5453 54.8638 65.4006C53.6723 65.2558 52.5775 64.9172 51.5796 64.3845C50.5912 63.8494 49.6963 63.1466 48.895 62.2763C48.0962 61.4155 47.3774 60.4519 46.7387 59.3856C46.1069 58.3072 45.5463 57.1692 45.0566 55.9716C44.574 54.762 44.1511 53.5468 43.788 52.326C43.4344 51.1027 43.1339 49.9063 42.8863 48.7367C42.6483 47.5645 42.4546 46.4828 42.3052 45.4914C41.9382 46.3435 41.6376 47.3313 41.4034 48.4545C41.1692 49.5778 40.9873 50.7639 40.8577 52.0126C40.7376 53.2589 40.655 54.531 40.6098 55.8289C40.5621 57.1173 40.5402 58.3683 40.5442 59.5818C40.5577 60.7928 40.5809 61.9247 40.6139 62.9774C40.6564 64.0277 40.6945 64.926 40.7282 65.6723C40.7293 65.7537 40.7319 65.8602 40.736 65.9918C40.7497 66.1209 40.743 66.2502 40.716 66.3798C40.6985 66.5069 40.6569 66.62 40.5912 66.719C40.528 66.8275 40.4344 66.8981 40.3103 66.9309C40.1958 66.9611 40.076 66.9519 39.9509 66.9033C39.8283 66.8642 39.7102 66.8035 39.5967 66.7212C39.4856 66.6485 39.3803 66.5589 39.2808 66.4525C39.1933 66.3531 39.1214 66.2547 39.0651 66.1573C38.5345 65.3074 38.0566 64.367 37.6313 63.3361C37.2182 62.3123 36.8394 61.2641 36.495 60.1915C36.1576 59.1068 35.8466 58.0254 35.5619 56.9472C35.2869 55.8665 35.0221 54.8443 34.7677 53.8806C34.4856 52.812 34.2178 51.7396 33.9643 50.6634C33.7108 49.5872 33.4811 48.5047 33.2754 47.4159C33.2032 47.0267 33.1293 46.592 33.0536 46.1119C32.9874 45.6293 32.9825 45.1662 33.0389 44.7226C33.0953 44.2791 33.2409 43.8834 33.4757 43.5356C33.708 43.1783 34.0913 42.9291 34.6256 42.7881C34.7592 42.7528 34.8778 42.7572 34.9813 42.8014C35.0918 42.8334 35.1672 42.9258 35.2075 43.0784L35.2377 43.1929C35.4134 44.3611 35.5937 45.5077 35.7784 46.6327C35.9606 47.7481 36.1523 48.861 36.3536 49.9714C36.5644 51.0793 36.7921 52.1929 37.0366 53.3123C37.2881 54.4196 37.5662 55.5505 37.871 56.7051C38.1682 57.8309 38.4906 58.9553 38.838 60.0781C39.183 61.1914 39.5613 62.2959 39.973 63.3916C39.8978 61.6763 39.8471 59.9955 39.8207 58.349C39.8038 56.7 39.8482 55.0706 39.9539 53.4607C40.0571 51.8412 40.2468 50.2398 40.5228 48.6564C40.7988 47.073 41.1921 45.4892 41.7027 43.9051C41.7463 43.7609 41.8039 43.5926 41.8756 43.4002C41.9543 43.1957 42.0463 43.003 42.1516 42.8221C42.264 42.6291 42.3874 42.4588 42.5219 42.311C42.6564 42.1632 42.8095 42.0667 42.9813 42.0213C43.1912 41.9659 43.3786 42.0185 43.5434 42.1791C43.7179 42.3372 43.8629 42.5387 43.9786 42.7838C44.1014 43.0167 44.2015 43.2608 44.2791 43.5159C44.3566 43.771 44.4143 43.9701 44.4521 44.1132C44.6221 45.0277 44.8067 46.0557 45.006 47.1973C45.2149 48.3363 45.4662 49.5202 45.76 50.7491C46.0538 51.9779 46.3955 53.2145 46.7853 54.4589C47.1846 55.7007 47.6549 56.883 48.1962 58.0057C48.735 59.1188 49.3599 60.1327 50.0709 61.0473C50.7843 61.9714 51.6009 62.7255 52.5205 63.3094C53.4497 63.8908 54.4887 64.2697 55.6376 64.4461C56.796 64.62 58.0908 64.518 59.522 64.1402C59.7223 64.0873 59.9224 64.0141 60.1223 63.9205C60.3342 63.8339 60.5242 63.7225 60.6924 63.5863L60.8252 63.8574Z" fill="#F1F1F1"/>
<path d="M60.2349 54.7203C60.0825 55.1484 59.8714 55.5665 59.6015 55.9745C59.3411 56.3801 59.0312 56.7528 58.6719 57.0926C58.322 57.4299 57.9358 57.7258 57.513 57.9803C57.0999 58.2322 56.6643 58.4187 56.2063 58.5396C55.5575 58.7109 54.9289 58.7849 54.3206 58.7618C53.7149 58.7482 53.1567 58.6251 52.6462 58.3924C52.1357 58.1598 51.6932 57.8173 51.3186 57.3651C50.9416 56.9033 50.6611 56.3241 50.4772 55.6276C50.2959 54.9406 50.2511 54.2686 50.343 53.6115C50.442 52.9424 50.6529 52.3304 50.976 51.7757C51.306 51.2088 51.7376 50.7173 52.2707 50.301C52.8038 49.8846 53.4138 49.5858 54.1008 49.4045C54.4252 49.3188 54.7384 49.2872 55.0403 49.3095C55.3492 49.3198 55.6325 49.3879 55.8903 49.5138C56.1455 49.6301 56.3644 49.802 56.5469 50.0294C56.739 50.2543 56.8791 50.5337 56.9672 50.8676C57.073 51.2684 57.0851 51.6428 57.0035 51.9909C56.9219 52.3391 56.7778 52.6629 56.5711 52.9624C56.3644 53.262 56.1094 53.5334 55.8062 53.7767C55.5126 54.0176 55.1923 54.2348 54.8454 54.4285C54.508 54.6196 54.1643 54.7869 53.8143 54.9303C53.4714 55.0617 53.152 55.1664 52.8562 55.2445L52.5127 55.3351C52.866 56.1707 53.3846 56.7431 54.0684 57.0525C54.7523 57.3619 55.5903 57.3856 56.5826 57.1236C57.2887 56.9372 57.9429 56.6318 58.5453 56.2074C59.1573 55.7805 59.6773 55.2758 60.1052 54.6933L60.2349 54.7203ZM52.3565 54.9171L52.7143 54.8227C53.0577 54.732 53.3969 54.5863 53.7318 54.3856C54.0641 54.1754 54.3457 53.9276 54.5765 53.6421C54.8144 53.3446 54.9872 53.0132 55.0949 52.6479C55.2026 52.2827 55.2035 51.8997 55.0977 51.4989C54.9945 51.1077 54.823 50.806 54.5832 50.5937C54.353 50.3789 54.0327 50.3257 53.6225 50.434C53.2026 50.5448 52.8788 50.7681 52.6511 51.1038C52.4303 51.4275 52.2784 51.7993 52.1954 52.2192C52.1098 52.6297 52.0782 53.0514 52.1007 53.4843C52.1301 53.9052 52.1864 54.2731 52.2696 54.5879L52.3565 54.9171Z" fill="#F1F1F1"/>
<path d="M71.7914 44.7954C71.9299 45.3202 72.0336 45.9256 72.1025 46.6117C72.1688 47.2882 72.1899 47.9869 72.1659 48.7077C72.1514 49.426 72.0889 50.1365 71.9785 50.8393C71.8775 51.5395 71.7208 52.1831 71.5083 52.7699C71.3028 53.3447 71.0435 53.8316 70.7304 54.2307C70.4269 54.6272 70.0652 54.8809 69.6453 54.9917C69.3973 55.0572 69.1149 54.9735 68.7983 54.7407C68.4937 54.5149 68.17 54.1973 67.8271 53.7877C67.4938 53.3755 67.1609 52.9072 66.8285 52.3826C66.4961 51.8579 66.1792 51.3343 65.878 50.8117C65.8734 51.3742 65.8608 51.9644 65.8402 52.5822C65.8196 53.2001 65.7482 53.7802 65.6261 54.3228C65.5014 54.8558 65.3124 55.3191 65.0591 55.7126C64.8057 56.1061 64.4501 56.3633 63.9921 56.4842C63.6963 56.5622 63.3878 56.4957 63.0667 56.2845C62.7551 56.0707 62.4437 55.7804 62.1325 55.4135C61.8283 55.0345 61.5271 54.6088 61.2289 54.1364C60.9377 53.6519 60.6706 53.1815 60.4277 52.7251C60.1917 52.2567 59.9827 51.8321 59.8006 51.4516C59.6185 51.071 59.4831 50.7903 59.3946 50.6095C59.3775 50.5834 59.3443 50.5157 59.295 50.4062C59.2457 50.2967 59.1903 50.1838 59.129 50.0673C59.0676 49.9508 59.0004 49.8512 58.9276 49.7683C58.8617 49.6735 58.8097 49.6311 58.7715 49.6411C58.6093 49.684 58.4323 49.7868 58.2406 49.9497C58.0558 50.1005 57.9068 50.2317 57.7933 50.3433L57.6697 50.2229C57.7655 50.0445 57.8886 49.8538 58.0392 49.6507C58.1967 49.4356 58.3676 49.2323 58.5518 49.0408C58.7455 48.8468 58.9455 48.6766 59.1519 48.5303C59.3677 48.3814 59.5758 48.2806 59.7762 48.2277C59.948 48.1823 60.1208 48.2184 60.2946 48.3358C60.4756 48.4411 60.6439 48.5957 60.7998 48.7995C60.9557 49.0033 61.1048 49.2395 61.2471 49.5081C61.3965 49.7646 61.5268 50.0262 61.638 50.2929C61.7563 50.5474 61.8539 50.7819 61.9309 50.9963C62.0175 51.2082 62.0854 51.3689 62.1347 51.4784C62.1644 51.5522 62.2298 51.7033 62.331 51.9318C62.4296 52.1507 62.5491 52.41 62.6894 52.7098C62.8273 53 62.975 53.308 63.1324 53.6339C63.2969 53.9477 63.4599 54.2364 63.6213 54.4999C63.7803 54.754 63.9278 54.9651 64.0641 55.1332C64.2074 55.2893 64.3219 55.356 64.4078 55.3334C64.675 55.2628 64.879 55.0304 65.0198 54.636C65.1581 54.232 65.2512 53.7533 65.2989 53.1997C65.3563 52.6436 65.3809 52.0605 65.3729 51.4502C65.3649 50.8399 65.3409 50.2849 65.3008 49.7852C65.1046 49.4287 64.9341 49.1114 64.7892 48.8333C64.6418 48.5456 64.5203 48.3174 64.4248 48.1487C64.3956 48.1156 64.3684 48.0513 64.3433 47.9559C64.308 47.8223 64.323 47.6857 64.3881 47.546C64.4533 47.4063 64.5461 47.2746 64.6666 47.151C64.787 47.0273 64.9173 46.9215 65.0574 46.8335C65.1974 46.7455 65.3247 46.6863 65.4392 46.6561C65.63 46.6057 65.8114 46.6548 65.9833 46.8034C66.1527 46.9424 66.307 47.121 66.4463 47.3394C66.5856 47.5578 66.7071 47.786 66.8108 48.024C66.9215 48.2499 67.0087 48.4259 67.0726 48.5519C67.0998 48.6162 67.1775 48.7947 67.3059 49.0875C67.4437 49.3777 67.611 49.7213 67.8077 50.1185C68.0044 50.5156 68.2134 50.9402 68.4348 51.392C68.6632 51.8319 68.8827 52.2383 69.0935 52.6113C69.3138 52.9818 69.5117 53.2868 69.6871 53.5263C69.8601 53.7562 69.9895 53.8598 70.0754 53.8371C70.333 53.7691 70.5489 53.6203 70.723 53.3906C70.8946 53.1514 71.0285 52.866 71.1247 52.5344C71.2279 52.1907 71.2924 51.8165 71.3182 51.4116C71.351 50.9947 71.3562 50.5698 71.3337 50.1368C71.3208 49.7014 71.2806 49.2782 71.2129 48.8674C71.1523 48.4445 71.0754 48.0566 70.9822 47.7035C70.9041 47.4078 70.8007 47.0932 70.6718 46.7597C70.5405 46.4168 70.3865 46.0849 70.21 45.7641C70.0334 45.4433 69.832 45.1443 69.6058 44.8672C69.3865 44.5781 69.1513 44.3442 68.9 44.1656C68.6462 43.9774 68.3789 43.8541 68.0981 43.7955C67.8172 43.737 67.5244 43.7684 67.2197 43.8896L67.157 43.7684C67.3724 43.5789 67.6096 43.4142 67.8686 43.2743C68.1277 43.1345 68.4051 43.0255 68.7009 42.9475C69.5119 42.7333 70.177 42.7976 70.6961 43.1403C71.2223 43.4709 71.5874 44.0226 71.7914 44.7954Z" fill="#F1F1F1"/>
<defs>
<filter id="filter0_d_640_3222" x="0.200195" y="0.199951" width="101.6" height="101.6" filterUnits="userSpaceOnUse" color-interpolation-filters="sRGB">
<feFlood flood-opacity="0" result="BackgroundImageFix"/>
<feColorMatrix in="SourceAlpha" type="matrix" values="0 0 0 0 0 0 0 0 0 0 0 0 0 0 0 0 0 0 127 0" result="hardAlpha"/>
<feOffset/>
<feGaussianBlur stdDeviation="10"/>
<feComposite in2="hardAlpha" operator="out"/>
<feColorMatrix type="matrix" values="0 0 0 0 0.929583 0 0 0 0 0.729167 0 0 0 0 1 0 0 0 0.73 0"/>
<feBlend mode="normal" in2="BackgroundImageFix" result="effect1_dropShadow_640_3222"/>
<feBlend mode="normal" in="SourceGraphic" in2="effect1_dropShadow_640_3222" result="shape"/>
</filter>
<filter id="filter1_d_640_3222" x="2.7998" y="2.80005" width="96.4004" height="96.3999" filterUnits="userSpaceOnUse" color-interpolation-filters="sRGB">
<feFlood flood-opacity="0" result="BackgroundImageFix"/>
<feColorMatrix in="SourceAlpha" type="matrix" values="0 0 0 0 0 0 0 0 0 0 0 0 0 0 0 0 0 0 127 0" result="hardAlpha"/>
<feOffset/>
<feGaussianBlur stdDeviation="10"/>
<feComposite in2="hardAlpha" operator="out"/>
<feColorMatrix type="matrix" values="0 0 0 0 0.929583 0 0 0 0 0.729167 0 0 0 0 1 0 0 0 0.73 0"/>
<feBlend mode="normal" in2="BackgroundImageFix" result="effect1_dropShadow_640_3222"/>
<feBlend mode="normal" in="SourceGraphic" in2="effect1_dropShadow_640_3222" result="shape"/>
</filter>
<linearGradient id="paint0_linear_640_3222" x1="51" y1="16.5882" x2="51" y2="86.2941" gradientUnits="userSpaceOnUse">
<stop offset="0.0001" stop-color="#B099D3"/>
<stop offset="1" stop-color="#5042A3"/>
</linearGradient>
</defs>
</svg>
