<svg width="82" height="81" viewBox="0 0 82 81" fill="none" xmlns="http://www.w3.org/2000/svg">
<g filter="url(#filter0_dd_973_2184)">
<path d="M45.1227 56.9452C45.1227 55.3298 45.1278 53.1627 45.1213 51.6425C45.1155 50.408 44.8562 50.1417 43.6432 50.1365C41.8394 50.1291 40.0356 50.1298 38.2318 50.1361C36.9955 50.1404 36.7604 50.3597 36.7408 51.6276C36.7169 53.1455 36.735 55.3115 36.735 56.8988C36.3937 56.9382 36.155 56.9886 35.916 56.9897C34.2812 56.9966 32.6462 57.0101 31.0116 56.9886C29.0716 56.9631 28.6135 56.478 28.6272 54.5772C28.6394 52.859 28.6125 45.5472 28.6596 43.8299C28.6691 43.4877 28.8486 43.0591 29.0969 42.8281C32.3567 39.7967 35.6379 36.7882 38.9252 33.7864C40.2366 32.5891 41.7842 32.5748 43.0976 33.7846C46.393 36.8194 49.6696 39.8747 52.9318 42.9449C53.1613 43.1609 53.3211 43.5646 53.3278 43.8847C53.3363 44.2999 53.3724 51.6988 53.3408 54.8888C53.3289 56.082 52.7406 56.8806 51.6374 56.9219C49.5042 57.0018 47.3662 56.9452 45.1227 56.9452Z" fill="url(#paint0_linear_973_2184)"/>
<path d="M40.6165 24.4307C42.2231 24.4274 43.0598 24.9604 43.8113 25.6883C46.7068 28.4917 49.6075 31.2904 52.5046 34.0921C53.8418 35.3855 55.1758 36.6825 56.5103 37.9787C56.6517 38.1163 56.7922 38.2559 56.9227 38.4037C57.6654 39.2449 57.7653 40.1478 57.1977 40.8547C56.5994 41.5997 55.4003 41.7741 54.5076 41.2266C54.2703 41.0809 54.0562 40.8906 53.8525 40.6983C50.5546 37.5807 47.257 34.463 43.9657 31.3382C41.5292 29.0251 40.5963 29.0063 38.1351 31.2929C34.8519 34.3433 31.595 37.422 28.286 40.4441C27.8193 40.8705 27.1508 41.1636 26.527 41.3084C25.7081 41.4983 25.0319 41.0823 24.6504 40.3276C24.2673 39.5698 24.4197 38.8376 24.9599 38.2071C25.2699 37.8451 25.6356 37.5295 25.9851 37.2027C30.0416 33.4102 34.1039 29.6247 38.1534 25.8248C39.0028 25.028 39.9282 24.4414 40.6165 24.4307Z" fill="url(#paint1_linear_973_2184)"/>
</g>
<defs>
<filter id="filter0_dd_973_2184" x="0.4375" y="0.430664" width="81.124" height="80.5696" filterUnits="userSpaceOnUse" color-interpolation-filters="sRGB">
<feFlood flood-opacity="0" result="BackgroundImageFix"/>
<feColorMatrix in="SourceAlpha" type="matrix" values="0 0 0 0 0 0 0 0 0 0 0 0 0 0 0 0 0 0 127 0" result="hardAlpha"/>
<feOffset/>
<feGaussianBlur stdDeviation="5.5"/>
<feComposite in2="hardAlpha" operator="out"/>
<feColorMatrix type="matrix" values="0 0 0 0 0.77 0 0 0 0 0.7125 0 0 0 0 1 0 0 0 0.8 0"/>
<feBlend mode="normal" in2="BackgroundImageFix" result="effect1_dropShadow_973_2184"/>
<feColorMatrix in="SourceAlpha" type="matrix" values="0 0 0 0 0 0 0 0 0 0 0 0 0 0 0 0 0 0 127 0" result="hardAlpha"/>
<feOffset/>
<feGaussianBlur stdDeviation="12"/>
<feComposite in2="hardAlpha" operator="out"/>
<feColorMatrix type="matrix" values="0 0 0 0 0.720833 0 0 0 0 0.441667 0 0 0 0 1 0 0 0 1 0"/>
<feBlend mode="normal" in2="effect1_dropShadow_973_2184" result="effect2_dropShadow_973_2184"/>
<feBlend mode="normal" in="SourceGraphic" in2="effect2_dropShadow_973_2184" result="shape"/>
</filter>
<linearGradient id="paint0_linear_973_2184" x1="30.3931" y1="29.2461" x2="53.8812" y2="58.1237" gradientUnits="userSpaceOnUse">
<stop offset="0.307292" stop-color="white"/>
<stop offset="0.932292" stop-color="#D7A5FF"/>
</linearGradient>
<linearGradient id="paint1_linear_973_2184" x1="26.8035" y1="21.8497" x2="39.1791" y2="50.5698" gradientUnits="userSpaceOnUse">
<stop offset="0.307292" stop-color="white"/>
<stop offset="0.932292" stop-color="#D7A5FF"/>
</linearGradient>
</defs>
</svg>
