<svg width="23" height="47" viewBox="0 0 23 47" fill="none" xmlns="http://www.w3.org/2000/svg">
<g filter="url(#filter0_d_518_1995)">
<path d="M9.55293 19.136C9.55293 18.544 9.65159 17.9274 9.84893 17.286C10.0463 16.6694 10.2683 16.0404 10.5149 15.399C10.7369 14.7577 10.9466 14.1164 11.1439 13.475C11.3413 12.8584 11.4399 12.254 11.4399 11.662C11.4399 10.5274 11.0453 9.62704 10.2559 8.96104C9.44193 8.29504 8.45526 7.96204 7.29593 7.96204C7.19726 7.96204 7.12326 7.9127 7.07393 7.81404C7.0246 7.71537 6.99993 7.60437 6.99993 7.48104C6.99993 7.3577 7.0246 7.24671 7.07393 7.14804C7.12326 7.04937 7.19726 7.00004 7.29593 7.00004C8.18393 7.00004 9.0596 7.08637 9.92293 7.25904C10.7863 7.43171 11.5633 7.74004 12.2539 8.18404C12.9199 8.60337 13.4626 9.15837 13.8819 9.84904C14.2766 10.5397 14.4739 11.403 14.4739 12.439C14.4739 13.031 14.3629 13.6107 14.1409 14.178C13.8943 14.77 13.6229 15.3497 13.3269 15.917C13.0309 16.4844 12.7719 17.0517 12.5499 17.619C12.3033 18.211 12.1799 18.803 12.1799 19.395C12.1799 19.7157 12.2046 20.0857 12.2539 20.505C12.3033 20.9244 12.4019 21.319 12.5499 21.689C12.6979 22.059 12.9076 22.3674 13.1789 22.614C13.4503 22.8607 13.7956 22.984 14.2149 22.984C14.3383 22.984 14.4616 22.9717 14.5849 22.947C14.7083 22.9224 14.8563 22.91 15.0289 22.91C15.1523 22.91 15.2509 22.984 15.3249 23.132C15.3743 23.28 15.3989 23.4404 15.3989 23.613C15.3989 23.8104 15.3743 23.983 15.3249 24.131C15.2509 24.279 15.1523 24.353 15.0289 24.353C14.8563 24.353 14.7083 24.3407 14.5849 24.316C14.4616 24.2914 14.3383 24.279 14.2149 24.279C13.7956 24.279 13.4503 24.3777 13.1789 24.575C12.9076 24.7724 12.6979 25.0314 12.5499 25.352C12.4019 25.6727 12.3033 26.0427 12.2539 26.462C12.2046 26.906 12.1799 27.35 12.1799 27.794C12.1799 28.312 12.3033 28.83 12.5499 29.348C12.7719 29.8907 13.0309 30.421 13.3269 30.939C13.5983 31.4817 13.8573 32.012 14.1039 32.53C14.3259 33.048 14.4369 33.566 14.4369 34.084C14.4369 35.1447 14.2519 36.045 13.8819 36.785C13.4873 37.5497 12.9693 38.1664 12.3279 38.635C11.6866 39.1037 10.9466 39.4367 10.1079 39.634C9.24459 39.856 8.34426 39.967 7.40693 39.967C7.30826 39.967 7.23426 39.9177 7.18493 39.819C7.13559 39.7204 7.11092 39.6094 7.11092 39.486C7.11092 39.3627 7.13559 39.2517 7.18493 39.153C7.23426 39.0544 7.30826 39.005 7.40693 39.005C8.51693 39.005 9.46659 38.6844 10.2559 38.043C11.0453 37.4264 11.4399 36.563 11.4399 35.453C11.4399 34.8857 11.3413 34.3184 11.1439 33.751C10.9466 33.2084 10.7369 32.6534 10.5149 32.086C10.2683 31.5187 10.0463 30.939 9.84893 30.347C9.65159 29.755 9.55293 29.1507 9.55293 28.534C9.55293 27.5474 9.73793 26.61 10.1079 25.722C10.4533 24.8587 11.0576 24.2174 11.9209 23.798C12.0936 23.6994 12.0936 23.5884 11.9209 23.465C11.1316 23.0704 10.5396 22.4907 10.1449 21.726C9.75026 20.9614 9.55293 20.098 9.55293 19.136Z" fill="#D9D9D9"/>
</g>
<defs>
<filter id="filter0_d_518_1995" x="0" y="0" width="22.3989" height="46.967" filterUnits="userSpaceOnUse" color-interpolation-filters="sRGB">
<feFlood flood-opacity="0" result="BackgroundImageFix"/>
<feColorMatrix in="SourceAlpha" type="matrix" values="0 0 0 0 0 0 0 0 0 0 0 0 0 0 0 0 0 0 127 0" result="hardAlpha"/>
<feOffset/>
<feGaussianBlur stdDeviation="3.5"/>
<feComposite in2="hardAlpha" operator="out"/>
<feColorMatrix type="matrix" values="0 0 0 0 1 0 0 0 0 1 0 0 0 0 1 0 0 0 0.69 0"/>
<feBlend mode="normal" in2="BackgroundImageFix" result="effect1_dropShadow_518_1995"/>
<feBlend mode="normal" in="SourceGraphic" in2="effect1_dropShadow_518_1995" result="shape"/>
</filter>
</defs>
</svg>
