<svg width="59" height="59" viewBox="0 0 59 59" fill="none" xmlns="http://www.w3.org/2000/svg">
<g filter="url(#filter0_d_932_3451)">
<path d="M29.5 14.3639C27.255 14.3633 25.0381 14.8621 23.0097 15.8242C20.9813 16.7862 19.1923 18.1874 17.7724 19.9262C16.3524 21.665 15.337 23.6979 14.7998 25.8777C14.2625 28.0574 14.2168 30.3293 14.6661 32.5289C14.7548 32.966 14.6663 33.4204 14.4199 33.7922C14.1736 34.164 13.7897 34.4227 13.3526 34.5114C12.9155 34.6002 12.4611 34.5116 12.0893 34.2653C11.7175 34.019 11.4587 33.635 11.37 33.1979C11.1233 31.9811 11 30.7416 11 29.5C11 19.2839 19.2839 11 29.5 11C32.9811 11 36.2443 11.9641 39.0254 13.6383C40.3358 12.8469 41.5507 12.2374 42.6083 11.8829C43.2537 11.666 43.9341 11.5129 44.5878 11.5211C45.2517 11.5293 46.0441 11.7112 46.6659 12.333C47.2888 12.9559 47.4707 13.7483 47.4779 14.4122C47.4871 15.0669 47.334 15.7463 47.1171 16.3938C46.7636 17.4493 46.1531 18.6641 45.3617 19.9746C47.0924 22.8501 48.0047 26.1438 48 29.5C48 39.7161 39.7161 48 29.5 48C26.0189 48 22.7557 47.0359 19.9746 45.3617C18.6641 46.1531 17.4493 46.7626 16.3917 47.1171C15.7463 47.334 15.0659 47.4871 14.4122 47.4789C13.7493 47.4707 12.9559 47.2888 12.3341 46.667C11.7112 46.0441 11.5293 45.2517 11.5221 44.5878C11.5129 43.9321 11.666 43.2537 11.8829 42.6062C12.3207 41.3061 13.1429 39.7644 14.2169 38.1004C16.5911 34.4292 20.4453 29.7857 25.1155 25.1155C28.8813 21.3497 32.6265 18.1174 35.8619 15.7617C33.8685 14.8377 31.6972 14.3606 29.5 14.3639ZM43.6761 15.0721C42.7624 15.3773 41.4952 16.0299 39.9268 17.0423C36.5135 19.2489 32.0561 22.9325 27.4938 27.4938C22.9325 32.0571 19.2489 36.5146 17.0423 39.9268C16.0299 41.4952 15.3773 42.7635 15.0721 43.6761C15.0279 43.8097 14.9929 43.93 14.9662 44.0338C15.07 44.0071 15.1892 43.9721 15.3239 43.9269C16.2376 43.6227 17.5048 42.9701 19.0732 41.9587C19.352 41.7781 19.6781 41.6842 20.0103 41.6888C20.3425 41.6934 20.6659 41.7962 20.9396 41.9844C23.4579 43.7165 26.4436 44.6414 29.5 44.6361C37.8599 44.6361 44.6361 37.8599 44.6361 29.5C44.6416 26.4432 43.7167 23.4571 41.9844 20.9386C41.7963 20.665 41.6934 20.3419 41.6886 20.0099C41.6838 19.678 41.7775 19.352 41.9577 19.0732C42.97 17.5048 43.6227 16.2365 43.9279 15.3239C43.9721 15.1902 44.0071 15.07 44.0338 14.9662C43.9133 14.9972 43.794 15.0325 43.6761 15.0721Z" fill="#F1F1F1"/>
</g>
<g filter="url(#filter1_d_932_3451)">
<path d="M32.2077 33.0454C31.8775 33.0454 31.5506 33.1053 31.2456 33.2219C30.9406 33.3385 30.6634 33.5094 30.4299 33.7249C30.1965 33.9404 30.0113 34.1962 29.8849 34.4778C29.7586 34.7593 29.6936 35.0611 29.6936 35.3658C29.6936 35.6706 29.7586 35.9723 29.8849 36.2539C30.0113 36.5354 30.1965 36.7912 30.4299 37.0067C30.6634 37.2222 30.9406 37.3931 31.2456 37.5097C31.5506 37.6263 31.8775 37.6863 32.2077 37.6862C32.8743 37.6861 33.5136 37.4416 33.985 37.0065C34.4563 36.5713 34.7211 35.9812 34.7211 35.3658C34.7211 34.7504 34.4563 34.1603 33.985 33.7251C33.5136 33.29 32.8743 33.0455 32.2077 33.0454ZM26.3418 35.3658C26.3418 33.9298 26.9598 32.5525 28.0599 31.5371C29.1599 30.5216 30.6519 29.9512 32.2077 29.9512C33.7634 29.9512 35.2554 30.5216 36.3554 31.5371C37.4555 32.5525 38.0735 33.9298 38.0735 35.3658C38.0735 36.8019 37.4555 38.1791 36.3554 39.1945C35.2554 40.21 33.7634 40.7804 32.2077 40.7804C30.6519 40.7804 29.1599 40.21 28.0599 39.1945C26.9598 38.1791 26.3418 36.8019 26.3418 35.3658Z" fill="#F1F1F1"/>
</g>
<defs>
<filter id="filter0_d_932_3451" x="0" y="0" width="59" height="59" filterUnits="userSpaceOnUse" color-interpolation-filters="sRGB">
<feFlood flood-opacity="0" result="BackgroundImageFix"/>
<feColorMatrix in="SourceAlpha" type="matrix" values="0 0 0 0 0 0 0 0 0 0 0 0 0 0 0 0 0 0 127 0" result="hardAlpha"/>
<feOffset/>
<feGaussianBlur stdDeviation="5.5"/>
<feComposite in2="hardAlpha" operator="out"/>
<feColorMatrix type="matrix" values="0 0 0 0 0.77 0 0 0 0 0.7125 0 0 0 0 1 0 0 0 0.8 0"/>
<feBlend mode="normal" in2="BackgroundImageFix" result="effect1_dropShadow_932_3451"/>
<feBlend mode="normal" in="SourceGraphic" in2="effect1_dropShadow_932_3451" result="shape"/>
</filter>
<filter id="filter1_d_932_3451" x="15.3418" y="18.9512" width="33.7319" height="32.8293" filterUnits="userSpaceOnUse" color-interpolation-filters="sRGB">
<feFlood flood-opacity="0" result="BackgroundImageFix"/>
<feColorMatrix in="SourceAlpha" type="matrix" values="0 0 0 0 0 0 0 0 0 0 0 0 0 0 0 0 0 0 127 0" result="hardAlpha"/>
<feOffset/>
<feGaussianBlur stdDeviation="5.5"/>
<feComposite in2="hardAlpha" operator="out"/>
<feColorMatrix type="matrix" values="0 0 0 0 0.77 0 0 0 0 0.7125 0 0 0 0 1 0 0 0 0.8 0"/>
<feBlend mode="normal" in2="BackgroundImageFix" result="effect1_dropShadow_932_3451"/>
<feBlend mode="normal" in="SourceGraphic" in2="effect1_dropShadow_932_3451" result="shape"/>
</filter>
</defs>
</svg>
