<svg width="66" height="32" viewBox="0 0 66 32" fill="none" xmlns="http://www.w3.org/2000/svg">
<path d="M8.23438 1.39258C8.23438 1.49805 8.2168 1.59766 8.18164 1.69141C8.14648 1.78516 8.11133 1.88477 8.07617 1.99023C7.90039 2.51758 7.70703 3.0332 7.49609 3.53711C7.29688 4.04102 7.12109 4.55664 6.96875 5.08398C6.69922 6.00977 6.48242 7.09961 6.31836 8.35352C6.1543 9.5957 6.02539 10.9258 5.93164 12.3438C5.83789 13.75 5.7793 15.2031 5.75586 16.7031C5.73242 18.1914 5.73828 19.6504 5.77344 21.0801C6.72266 21.2559 7.71289 21.4141 8.74414 21.5547C9.78711 21.6836 10.8008 21.7949 11.7852 21.8887C12.7695 21.9824 13.6953 22.0586 14.5625 22.1172C15.4414 22.1641 16.1973 22.1875 16.8301 22.1875H17.5156C17.293 20.4062 17.1406 18.6367 17.0586 16.8789C16.9766 15.1211 16.9355 13.4746 16.9355 11.9395C16.9355 11.4941 16.9414 10.9609 16.9531 10.3398C16.9648 9.71875 17 9.0625 17.0586 8.37109C17.1172 7.66797 17.1992 6.95898 17.3047 6.24414C17.4219 5.51758 17.5801 4.83789 17.7793 4.20508C17.9785 3.56055 18.2246 2.98633 18.5176 2.48242C18.8105 1.9668 19.1738 1.57422 19.6074 1.30469C19.8184 1.17578 20.0469 1.05859 20.293 0.953125C20.5391 0.835937 20.791 0.777344 21.0488 0.777344C21.4238 0.777344 21.6113 0.964844 21.6113 1.33984C21.6113 1.45703 21.5938 1.56836 21.5586 1.67383C21.5352 1.7793 21.5059 1.88477 21.4707 1.99023C21.2949 2.50586 21.1074 3.01562 20.9082 3.51953C20.709 4.01172 20.5273 4.52148 20.3633 5.04883C20.1055 5.89258 19.8887 6.85352 19.7129 7.93164C19.5488 8.99805 19.4141 10.1348 19.3086 11.3418C19.2148 12.5488 19.1504 13.7969 19.1152 15.0859C19.0801 16.375 19.0684 17.6582 19.0801 18.9355C19.0918 20.2012 19.1211 21.4375 19.168 22.6445C19.2266 23.8516 19.2969 24.9766 19.3789 26.0195C19.4609 27.0625 19.5488 27.9941 19.6426 28.8145C19.748 29.6465 19.8535 30.3203 19.959 30.8359L19.6074 30.9766C19.127 29.8047 18.7227 28.5332 18.3945 27.1621C18.0781 25.791 17.8203 24.373 17.6211 22.9082C16.8945 23.1074 16.0566 23.2773 15.1074 23.418C14.1582 23.5469 13.1914 23.6523 12.207 23.7344C11.2344 23.8047 10.291 23.8574 9.37695 23.8926C8.47461 23.916 7.70703 23.9277 7.07422 23.9277H5.87891C5.94922 25.4512 6.04297 26.8164 6.16016 28.0234C6.27734 29.2305 6.41211 30.1797 6.56445 30.8711L6.21289 31.0117C5.79102 29.9688 5.42773 28.8438 5.12305 27.6367C4.81836 26.4297 4.56055 25.1816 4.34961 23.8926C4.00977 23.8691 3.68164 23.834 3.36523 23.7871C3.04883 23.7402 2.73828 23.6758 2.43359 23.5938C2.12891 23.5352 1.84766 23.4004 1.58984 23.1895C1.33203 22.9785 1.10938 22.7324 0.921875 22.4512C0.734375 22.1699 0.582031 21.8711 0.464844 21.5547C0.359375 21.2266 0.306641 20.9102 0.306641 20.6055C0.306641 20.4414 0.341797 20.2773 0.412109 20.1133C0.482422 19.9375 0.628906 19.8496 0.851562 19.8496C1.01562 19.8496 1.16797 19.8848 1.30859 19.9551C1.66016 20.0957 2.05273 20.2305 2.48633 20.3594C2.93164 20.4766 3.41797 20.5938 3.94531 20.7109C3.78125 19.1758 3.66406 17.6641 3.59375 16.1758C3.53516 14.6875 3.50586 13.2871 3.50586 11.9746C3.50586 11.5176 3.51172 10.9785 3.52344 10.3574C3.54688 9.73633 3.58203 9.08008 3.62891 8.38867C3.6875 7.68555 3.77539 6.97656 3.89258 6.26172C4.00977 5.53516 4.16797 4.85547 4.36719 4.22266C4.56641 3.58984 4.8125 3.02148 5.10547 2.51758C5.41016 2.00195 5.7793 1.60937 6.21289 1.33984C6.41211 1.21094 6.63477 1.08789 6.88086 0.970703C7.13867 0.841797 7.39648 0.777344 7.6543 0.777344C7.83008 0.777344 7.9707 0.830078 8.07617 0.935547C8.18164 1.04102 8.23438 1.19336 8.23438 1.39258ZM32.6328 19.8145C32.6328 20.6348 32.498 21.3965 32.2285 22.0996C31.959 22.8027 31.5781 23.4121 31.0859 23.9277C30.5938 24.4434 30.002 24.8477 29.3105 25.1406C28.6309 25.4336 27.875 25.5801 27.043 25.5801C26.3047 25.5801 25.6367 25.4395 25.0391 25.1582C24.4531 24.8887 23.9492 24.5195 23.5273 24.0508C23.1055 23.582 22.7832 23.0371 22.5605 22.416C22.3379 21.7832 22.2266 21.1094 22.2266 20.3945C22.2266 19.7969 22.3086 19.2285 22.4727 18.6895C22.6484 18.1504 22.8887 17.6523 23.1934 17.1953C23.498 16.7266 23.8613 16.2988 24.2832 15.9121C24.7051 15.5137 25.1621 15.1562 25.6543 14.8398L25.8652 14.998C25.373 15.5723 24.9863 16.2051 24.7051 16.8965C24.4238 17.5879 24.2832 18.3203 24.2832 19.0938C24.2832 19.6562 24.3652 20.2305 24.5293 20.8164C24.7051 21.3906 24.957 21.918 25.2852 22.3984C25.6133 22.8789 26.0234 23.2715 26.5156 23.5762C27.0078 23.8809 27.5703 24.0332 28.2031 24.0332C28.6016 24.0332 28.9766 23.9512 29.3281 23.7871C29.6797 23.623 29.9844 23.4004 30.2422 23.1191C30.5117 22.8379 30.7227 22.5215 30.875 22.1699C31.0391 21.8066 31.1211 21.4316 31.1211 21.0449C31.1211 20.6699 31.0625 20.3066 30.9453 19.9551C30.8398 19.5918 30.6875 19.2578 30.4883 18.9531C30.2891 18.6367 30.0488 18.3555 29.7676 18.1094C29.4863 17.8516 29.1816 17.6406 28.8535 17.4766C28.666 17.3828 28.4844 17.3125 28.3086 17.2656C28.1445 17.2188 27.9629 17.166 27.7637 17.1074C27.6816 17.0957 27.5938 17.0781 27.5 17.0547C27.4062 17.0195 27.3184 16.9844 27.2363 16.9492C27.1543 16.9023 27.084 16.8438 27.0254 16.7734C26.9668 16.7031 26.9375 16.6152 26.9375 16.5098C26.9375 16.2988 27.0137 16.1055 27.166 15.9297C27.3184 15.7539 27.5 15.6016 27.7109 15.4727C27.9219 15.332 28.1445 15.2266 28.3789 15.1562C28.6133 15.0742 28.8184 15.0332 28.9941 15.0332C29.5918 15.0332 30.1191 15.1855 30.5762 15.4902C31.0332 15.7949 31.4141 16.1816 31.7188 16.6504C32.0234 17.1191 32.252 17.6348 32.4043 18.1973C32.5566 18.7598 32.6328 19.2988 32.6328 19.8145ZM54.9395 22.4863C54.7285 22.9082 54.4766 23.3184 54.1836 23.7168C53.8906 24.1035 53.5625 24.4492 53.1992 24.7539C52.8359 25.0586 52.4316 25.2988 51.9863 25.4746C51.5527 25.6621 51.0781 25.7559 50.5625 25.7559C49.8359 25.7559 49.2441 25.5098 48.7871 25.0176C48.3301 24.5254 47.9551 23.8867 47.6621 23.1016C47.3809 22.3047 47.1582 21.4082 46.9941 20.4121C46.8301 19.4043 46.6895 18.3906 46.5723 17.3711C46.3027 17.8516 46.0508 18.3555 45.8164 18.8828C45.5938 19.3984 45.377 19.9434 45.166 20.5176C44.9551 21.0918 44.7441 21.6836 44.5332 22.293C44.3223 22.9023 44.0938 23.5293 43.8477 24.1738C43.7891 24.3145 43.7246 24.4727 43.6543 24.6484C43.584 24.8125 43.4902 24.9707 43.373 25.123C43.2676 25.2871 43.1387 25.4219 42.9863 25.5273C42.834 25.6328 42.6523 25.6855 42.4414 25.6855C42.2891 25.6855 42.1543 25.6504 42.0371 25.5801C41.9199 25.5098 41.8145 25.4219 41.7207 25.3164C41.6387 25.2227 41.5625 25.1172 41.4922 25C41.4336 24.8711 41.3809 24.7539 41.334 24.6484C41.0996 24.1211 40.9121 23.582 40.7715 23.0312C40.6309 22.4805 40.5078 21.9121 40.4023 21.3262C40.3086 20.7402 40.2266 20.1191 40.1562 19.4629C40.0859 18.8066 40.0156 18.1094 39.9453 17.3711C39.6992 17.9453 39.4766 18.4961 39.2773 19.0234C39.0898 19.5391 38.9023 20.0605 38.7148 20.5879C38.5391 21.1035 38.3574 21.6426 38.1699 22.2051C37.9941 22.7559 37.8066 23.3535 37.6074 23.998C37.5605 24.1504 37.5078 24.3145 37.4492 24.4902C37.4023 24.6543 37.3379 24.8066 37.2559 24.9473C37.1855 25.0879 37.0859 25.2051 36.957 25.2988C36.8398 25.3926 36.6875 25.4395 36.5 25.4395C36.1953 25.4395 35.9727 25.3398 35.832 25.1406C35.6914 24.9531 35.5742 24.7305 35.4805 24.4727C35.3398 24.1211 35.2051 23.6348 35.0762 23.0137C34.9473 22.3809 34.8301 21.6953 34.7246 20.957C34.6191 20.2188 34.5371 19.457 34.4785 18.6719C34.4199 17.8867 34.3906 17.1543 34.3906 16.4746C34.3906 15.8184 34.5664 15.3379 34.918 15.0332C35.2695 14.7168 35.7324 14.5586 36.3066 14.5586C36.3418 14.5586 36.3945 14.5586 36.4648 14.5586C36.5352 14.5586 36.6055 14.5703 36.6758 14.5938C36.7461 14.6055 36.8047 14.6289 36.8516 14.6641C36.9102 14.6992 36.9336 14.7461 36.9219 14.8047C36.8164 15.625 36.7461 16.4043 36.7109 17.1426C36.6758 17.8809 36.6641 18.6016 36.6758 19.3047C36.6875 19.9961 36.7227 20.6816 36.7812 21.3613C36.8516 22.0293 36.9395 22.7148 37.0449 23.418C37.2441 22.75 37.4375 22.1113 37.625 21.502C37.8242 20.8926 38.0293 20.2891 38.2402 19.6914C38.4512 19.0938 38.6738 18.4902 38.9082 17.8809C39.1543 17.2598 39.418 16.6094 39.6992 15.9297C39.8516 15.5781 40.0098 15.332 40.1738 15.1914C40.3496 15.0508 40.5723 14.9805 40.8418 14.9805C41.1816 14.9805 41.4453 15.1094 41.6328 15.3672C41.832 15.625 41.9609 15.918 42.0195 16.2461C42.1133 16.8438 42.1953 17.459 42.2656 18.0918C42.3359 18.7129 42.4121 19.3398 42.4941 19.9727C42.5762 20.6055 42.6758 21.2324 42.793 21.8535C42.9102 22.4629 43.0625 23.0547 43.25 23.6289C43.4844 23.0195 43.7188 22.3867 43.9531 21.7305C44.1875 21.0625 44.4277 20.3945 44.6738 19.7266C44.9199 19.0586 45.1777 18.4023 45.4473 17.7578C45.7285 17.1133 46.0273 16.5039 46.3438 15.9297C46.4961 15.6602 46.666 15.4375 46.8535 15.2617C47.0527 15.0742 47.2988 14.9805 47.5918 14.9805C47.7559 14.9805 47.9023 15.0215 48.0312 15.1035C48.1602 15.1738 48.2715 15.2734 48.3652 15.4023C48.459 15.5195 48.5352 15.6543 48.5938 15.8066C48.6523 15.9473 48.6934 16.0938 48.7168 16.2461C48.7754 16.5859 48.8281 17.0254 48.875 17.5645C48.9336 18.1035 49.0039 18.6777 49.0859 19.2871C49.1797 19.8965 49.291 20.5117 49.4199 21.1328C49.5488 21.7422 49.7129 22.2988 49.9121 22.8027C50.1113 23.2949 50.3516 23.6992 50.6328 24.0156C50.9141 24.332 51.2539 24.4902 51.6523 24.4902C51.9805 24.4902 52.2969 24.4316 52.6016 24.3145C52.9062 24.1855 53.1934 24.0273 53.4629 23.8398C53.7324 23.6406 53.9785 23.418 54.2012 23.1719C54.4355 22.9141 54.6465 22.6621 54.834 22.416L54.9395 22.4863ZM65.4512 22.4863C65.1465 22.9316 64.7773 23.3477 64.3438 23.7344C63.9219 24.1211 63.4531 24.4551 62.9375 24.7363C62.4336 25.0176 61.9004 25.2402 61.3379 25.4043C60.7871 25.5684 60.2305 25.6504 59.668 25.6504C58.8711 25.6504 58.127 25.5449 57.4355 25.334C56.7441 25.1348 56.1406 24.8242 55.625 24.4023C55.1094 23.9805 54.7051 23.4531 54.4121 22.8203C54.1191 22.1758 53.9727 21.4258 53.9727 20.5703C53.9727 19.7266 54.125 18.9414 54.4297 18.2148C54.7461 17.4766 55.1738 16.8379 55.7129 16.2988C56.2637 15.748 56.9082 15.3145 57.6465 14.998C58.3848 14.6816 59.1758 14.5234 60.0195 14.5234C60.418 14.5234 60.7871 14.582 61.127 14.6992C61.4785 14.8047 61.7832 14.9688 62.041 15.1914C62.2988 15.4023 62.498 15.666 62.6387 15.9824C62.791 16.2988 62.8672 16.6621 62.8672 17.0723C62.8672 17.5645 62.7676 17.998 62.5684 18.373C62.3691 18.748 62.1055 19.0762 61.7773 19.3574C61.4492 19.6387 61.0742 19.873 60.6523 20.0605C60.2422 20.248 59.8086 20.4004 59.3516 20.5176C58.9062 20.6348 58.4609 20.7227 58.0156 20.7812C57.582 20.8281 57.1836 20.8516 56.8203 20.8516H56.3984C56.5508 21.918 56.9727 22.7324 57.6641 23.2949C58.3555 23.8574 59.3105 24.1387 60.5293 24.1387C61.3965 24.1387 62.2402 23.9863 63.0605 23.6816C63.8926 23.377 64.6426 22.9551 65.3105 22.416L65.4512 22.4863ZM56.3457 20.3242H56.7852C57.207 20.3242 57.6406 20.2598 58.0859 20.1309C58.5312 19.9902 58.9297 19.791 59.2812 19.5332C59.6445 19.2637 59.9434 18.9355 60.1777 18.5488C60.4121 18.1621 60.5293 17.7227 60.5293 17.2305C60.5293 16.75 60.4238 16.3516 60.2129 16.0352C60.0137 15.7188 59.6621 15.5605 59.1582 15.5605C58.6426 15.5605 58.2031 15.7188 57.8398 16.0352C57.4883 16.3398 57.2012 16.7207 56.9785 17.1777C56.7559 17.623 56.5918 18.0977 56.4863 18.6016C56.3926 19.0938 56.3457 19.5332 56.3457 19.9199V20.3242Z" fill="#F1F1F1"/>
</svg>
