<svg width="23" height="47" viewBox="0 0 23 47" fill="none" xmlns="http://www.w3.org/2000/svg">
<g filter="url(#filter0_d_518_1994)">
<path d="M12.846 27.831C12.846 28.423 12.7473 29.0397 12.55 29.681C12.3527 30.2977 12.1307 30.9267 11.884 31.568C11.662 32.2093 11.4523 32.8507 11.255 33.492C11.0577 34.1087 10.959 34.713 10.959 35.305C10.959 36.4397 11.3537 37.34 12.143 38.006C12.957 38.672 13.9437 39.005 15.103 39.005C15.2017 39.005 15.2757 39.0543 15.325 39.153C15.3743 39.2517 15.399 39.3627 15.399 39.486C15.399 39.6093 15.3743 39.7203 15.325 39.819C15.2757 39.9177 15.2017 39.967 15.103 39.967C14.215 39.967 13.3393 39.8807 12.476 39.708C11.6127 39.5353 10.8357 39.227 10.145 38.783C9.479 38.3637 8.93633 37.8087 8.517 37.118C8.12233 36.4273 7.925 35.564 7.925 34.528C7.925 33.936 8.036 33.3563 8.258 32.789C8.50467 32.197 8.776 31.6173 9.072 31.05C9.368 30.4827 9.627 29.9153 9.849 29.348C10.0957 28.756 10.219 28.164 10.219 27.572C10.219 27.2513 10.1943 26.8813 10.145 26.462C10.0957 26.0427 9.997 25.648 9.849 25.278C9.701 24.908 9.49133 24.5997 9.22 24.353C8.94867 24.1063 8.60333 23.983 8.184 23.983C8.06067 23.983 7.93733 23.9953 7.814 24.02C7.69067 24.0447 7.54267 24.057 7.37 24.057C7.24667 24.057 7.148 23.983 7.074 23.835C7.02467 23.687 7 23.5267 7 23.354C7 23.1567 7.02467 22.984 7.074 22.836C7.148 22.688 7.24667 22.614 7.37 22.614C7.54267 22.614 7.69067 22.6263 7.814 22.651C7.93733 22.6757 8.06067 22.688 8.184 22.688C8.60333 22.688 8.94867 22.5893 9.22 22.392C9.49133 22.1947 9.701 21.9357 9.849 21.615C9.997 21.2943 10.0957 20.9243 10.145 20.505C10.1943 20.061 10.219 19.617 10.219 19.173C10.219 18.655 10.0957 18.137 9.849 17.619C9.627 17.0763 9.368 16.546 9.072 16.028C8.80067 15.4853 8.54167 14.955 8.295 14.437C8.073 13.919 7.962 13.401 7.962 12.883C7.962 11.8223 8.147 10.922 8.517 10.182C8.91167 9.41733 9.42967 8.80067 10.071 8.332C10.7123 7.86333 11.4523 7.53033 12.291 7.333C13.1543 7.111 14.0547 7 14.992 7C15.0907 7 15.1647 7.04933 15.214 7.148C15.2633 7.24667 15.288 7.35767 15.288 7.481C15.288 7.60433 15.2633 7.71533 15.214 7.814C15.1647 7.91267 15.0907 7.962 14.992 7.962C13.882 7.962 12.9323 8.28267 12.143 8.924C11.3537 9.54067 10.959 10.404 10.959 11.514C10.959 12.0813 11.0577 12.6487 11.255 13.216C11.4523 13.7587 11.662 14.3137 11.884 14.881C12.1307 15.4483 12.3527 16.028 12.55 16.62C12.7473 17.212 12.846 17.8163 12.846 18.433C12.846 19.4197 12.661 20.357 12.291 21.245C11.9457 22.1083 11.3413 22.7497 10.478 23.169C10.3053 23.2677 10.3053 23.3787 10.478 23.502C11.2673 23.8967 11.8593 24.4763 12.254 25.241C12.6487 26.0057 12.846 26.869 12.846 27.831Z" fill="#D9D9D9"/>
</g>
<defs>
<filter id="filter0_d_518_1994" x="0" y="0" width="22.3989" height="46.967" filterUnits="userSpaceOnUse" color-interpolation-filters="sRGB">
<feFlood flood-opacity="0" result="BackgroundImageFix"/>
<feColorMatrix in="SourceAlpha" type="matrix" values="0 0 0 0 0 0 0 0 0 0 0 0 0 0 0 0 0 0 127 0" result="hardAlpha"/>
<feOffset/>
<feGaussianBlur stdDeviation="3.5"/>
<feComposite in2="hardAlpha" operator="out"/>
<feColorMatrix type="matrix" values="0 0 0 0 1 0 0 0 0 1 0 0 0 0 1 0 0 0 0.69 0"/>
<feBlend mode="normal" in2="BackgroundImageFix" result="effect1_dropShadow_518_1994"/>
<feBlend mode="normal" in="SourceGraphic" in2="effect1_dropShadow_518_1994" result="shape"/>
</filter>
</defs>
</svg>
