<svg width="61" height="53" viewBox="0 0 61 53" fill="none" xmlns="http://www.w3.org/2000/svg">
<g filter="url(#filter0_d_501_701)">
<path d="M42.9091 31.6667V14.4444C42.9091 13.9921 42.8174 13.5442 42.6392 13.1263C42.461 12.7084 42.1999 12.3287 41.8707 12.0089C41.5414 11.689 41.1506 11.4353 40.7204 11.2622C40.2903 11.0891 39.8292 11 39.3636 11H14.5455C13.6051 11 12.7033 11.3629 12.0384 12.0089C11.3735 12.6548 11 13.5309 11 14.4444V31.6667C11 32.119 11.0917 32.5669 11.2699 32.9848C11.4481 33.4027 11.7092 33.7824 12.0384 34.1023C12.3677 34.4221 12.7585 34.6758 13.1887 34.8489C13.6188 35.022 14.0799 35.1111 14.5455 35.1111H39.3636C39.8292 35.1111 40.2903 35.022 40.7204 34.8489C41.1506 34.6758 41.5414 34.4221 41.8707 34.1023C42.1999 33.7824 42.461 33.4027 42.6392 32.9848C42.8174 32.5669 42.9091 32.119 42.9091 31.6667ZM26.9545 28.2222C25.9072 28.2276 24.8844 27.9145 24.0295 27.3267L14.5455 20.8683V17.2L25.8023 24.8639C26.1406 25.092 26.5427 25.2143 26.9545 25.2143C27.3664 25.2143 27.7685 25.092 28.1068 24.8639L39.3636 17.2V20.8683L29.8795 27.3267C29.0247 27.9145 28.0019 28.2276 26.9545 28.2222ZM46.4545 17.8889V35.1111C46.4545 35.5634 46.3628 36.0113 46.1847 36.4292C46.0065 36.8471 45.7453 37.2269 45.4161 37.5467C45.0869 37.8665 44.696 38.1203 44.2659 38.2934C43.8357 38.4665 43.3747 38.5556 42.9091 38.5556H18.0909C18.0909 39.0079 18.1826 39.4558 18.3608 39.8737C18.539 40.2916 18.8001 40.6713 19.1293 40.9911C19.4586 41.311 19.8494 41.5647 20.2796 41.7378C20.7097 41.9109 21.1708 42 21.6364 42H42.9091C44.7897 42 46.5933 41.2742 47.9231 39.9823C49.2529 38.6904 50 36.9382 50 35.1111V21.3333C50 20.881 49.9083 20.4331 49.7301 20.0152C49.5519 19.5973 49.2908 19.2176 48.9616 18.8977C48.6323 18.5779 48.2415 18.3242 47.8113 18.1511C47.3812 17.978 46.9201 17.8889 46.4545 17.8889Z" fill="#FAFAFA"/>
</g>
<defs>
<filter id="filter0_d_501_701" x="0" y="0" width="61" height="53" filterUnits="userSpaceOnUse" color-interpolation-filters="sRGB">
<feFlood flood-opacity="0" result="BackgroundImageFix"/>
<feColorMatrix in="SourceAlpha" type="matrix" values="0 0 0 0 0 0 0 0 0 0 0 0 0 0 0 0 0 0 127 0" result="hardAlpha"/>
<feOffset/>
<feGaussianBlur stdDeviation="5.5"/>
<feComposite in2="hardAlpha" operator="out"/>
<feColorMatrix type="matrix" values="0 0 0 0 0.77 0 0 0 0 0.7125 0 0 0 0 1 0 0 0 0.8 0"/>
<feBlend mode="normal" in2="BackgroundImageFix" result="effect1_dropShadow_501_701"/>
<feBlend mode="normal" in="SourceGraphic" in2="effect1_dropShadow_501_701" result="shape"/>
</filter>
</defs>
</svg>
