<svg width="91" height="39" viewBox="0 0 91 39" fill="none" xmlns="http://www.w3.org/2000/svg">
<path d="M17.4102 25.1953C17.2812 26.0391 16.9883 26.7715 16.5312 27.3926C16.0859 28.0254 15.541 28.541 14.8965 28.9395C14.2637 29.3496 13.5605 29.6543 12.7871 29.8535C12.0254 30.0527 11.2578 30.1523 10.4844 30.1523C9.93359 30.1523 9.36523 30.082 8.7793 29.9414C8.19336 29.8008 7.60156 29.6484 7.00391 29.4844C6.41797 29.3203 5.83789 29.168 5.26367 29.0273C4.70117 28.8867 4.16211 28.8164 3.64648 28.8164C3.40039 28.8164 3.13672 28.8457 2.85547 28.9043C2.58594 28.9629 2.31641 29.0449 2.04688 29.1504C1.78906 29.2559 1.54883 29.3848 1.32617 29.5371C1.10352 29.7012 0.927734 29.8828 0.798828 30.082L0.517578 29.9414C0.564453 29.4492 0.6875 28.998 0.886719 28.5879C1.09766 28.1777 1.36133 27.8203 1.67773 27.5156C2.00586 27.2109 2.375 26.9707 2.78516 26.7949C3.20703 26.6309 3.66406 26.5488 4.15625 26.5488C4.27344 26.5488 4.38477 26.5488 4.49023 26.5488C4.60742 26.5488 4.72461 26.5547 4.8418 26.5664C4.34961 25.3945 3.93945 24.1113 3.61133 22.7168C3.29492 21.3105 3.04297 19.8809 2.85547 18.4277C2.66797 16.9629 2.5332 15.5098 2.45117 14.0684C2.38086 12.627 2.3457 11.2793 2.3457 10.0254C2.3457 9.60352 2.35156 9.11133 2.36328 8.54883C2.38672 7.98633 2.42773 7.39453 2.48633 6.77344C2.54492 6.14062 2.62695 5.50781 2.73242 4.875C2.84961 4.24219 3.00781 3.64453 3.20703 3.08203C3.40625 2.51953 3.65234 2.01562 3.94531 1.57031C4.23828 1.125 4.5957 0.779297 5.01758 0.533203C5.24023 0.404297 5.46875 0.287109 5.70312 0.181641C5.94922 0.0761719 6.20117 0.0234375 6.45898 0.0234375C6.62305 0.0234375 6.76367 0.0644531 6.88086 0.146484C7.00977 0.216797 7.07422 0.345703 7.07422 0.533203C7.07422 0.638672 7.05664 0.738281 7.02148 0.832031C6.99805 0.914063 6.96875 1.00195 6.93359 1.0957C6.74609 1.51758 6.55273 1.92773 6.35352 2.32617C6.16602 2.72461 6.00781 3.13477 5.87891 3.55664C5.57422 4.57617 5.32227 5.68359 5.12305 6.87891C4.93555 8.07422 4.79492 9.32227 4.70117 10.623C4.60742 11.9238 4.55469 13.2656 4.54297 14.6484C4.53125 16.0195 4.55469 17.3906 4.61328 18.7617C4.68359 20.1211 4.77734 21.4688 4.89453 22.8047C5.01172 24.1289 5.15234 25.4004 5.31641 26.6191C5.80859 26.6895 6.30664 26.7773 6.81055 26.8828C7.32617 27 7.8418 27.1113 8.35742 27.2168C8.88477 27.334 9.41797 27.4336 9.95703 27.5156C10.4961 27.5977 11.0469 27.6387 11.6094 27.6387C12.1367 27.6387 12.6641 27.5918 13.1914 27.498C13.7305 27.416 14.2402 27.2754 14.7207 27.0762C15.2129 26.877 15.6641 26.6133 16.0742 26.2852C16.4844 25.957 16.8301 25.5527 17.1113 25.0723L17.4102 25.1953ZM17.8496 9.81445C17.8496 10.0488 17.7969 10.2832 17.6914 10.5176C17.5859 10.752 17.4453 10.9629 17.2695 11.1504C17.1055 11.3262 16.9121 11.4727 16.6895 11.5898C16.4668 11.707 16.2383 11.7656 16.0039 11.7656C15.6992 11.7656 15.4531 11.666 15.2656 11.4668C15.0898 11.2676 15.002 11.0156 15.002 10.7109C15.002 10.4766 15.0547 10.248 15.1602 10.0254C15.2656 9.79102 15.4004 9.58594 15.5645 9.41016C15.7402 9.23438 15.9336 9.09375 16.1445 8.98828C16.3672 8.87109 16.5957 8.8125 16.8301 8.8125C17.1348 8.8125 17.3809 8.90625 17.5684 9.09375C17.7559 9.28125 17.8496 9.52148 17.8496 9.81445ZM22.7715 21.4863C22.502 21.9316 22.1797 22.3418 21.8047 22.7168C21.4414 23.0801 21.0371 23.4023 20.5918 23.6836C20.1582 23.9531 19.6895 24.1641 19.1855 24.3164C18.6934 24.4688 18.1836 24.5449 17.6562 24.5449C17 24.5449 16.4141 24.4336 15.8984 24.2109C15.3945 23.9883 14.9668 23.6836 14.6152 23.2969C14.2754 22.8984 14.0117 22.4355 13.8242 21.9082C13.6484 21.3691 13.5605 20.7832 13.5605 20.1504C13.5605 19.4707 13.6602 18.8262 13.8594 18.2168C14.0586 17.6074 14.334 17.0391 14.6855 16.5117C15.0371 15.9727 15.4473 15.4805 15.916 15.0352C16.3965 14.5898 16.9062 14.1914 17.4453 13.8398L17.6562 13.998C17.082 14.6777 16.6133 15.4395 16.25 16.2832C15.8984 17.127 15.7227 18.0059 15.7227 18.9199C15.7227 19.4473 15.7812 19.957 15.8984 20.4492C16.0273 20.9297 16.2207 21.3574 16.4785 21.7324C16.748 22.1074 17.0879 22.4062 17.498 22.6289C17.9082 22.8516 18.4062 22.9629 18.9922 22.9629C19.6836 22.9629 20.3398 22.8164 20.9609 22.5234C21.5938 22.2305 22.1621 21.8613 22.666 21.416L22.7715 21.4863ZM31.7363 20.2207C31.7363 20.8301 31.625 21.4043 31.4023 21.9434C31.1797 22.4824 30.8691 22.9512 30.4707 23.3496C30.0723 23.748 29.6035 24.0645 29.0645 24.2988C28.5371 24.5332 27.9629 24.6504 27.3418 24.6504C26.9316 24.6504 26.5273 24.5859 26.1289 24.457C25.7305 24.3281 25.3613 24.1465 25.0215 23.9121C24.6934 23.666 24.4062 23.373 24.1602 23.0332C23.9141 22.6934 23.7383 22.3184 23.6328 21.9082L24.0371 21.8027C24.3418 22.1777 24.6934 22.4883 25.0918 22.7344C25.502 22.9805 25.9648 23.1035 26.4805 23.1035C26.9141 23.1035 27.3125 23.0098 27.6758 22.8223C28.0508 22.6348 28.3672 22.3887 28.625 22.084C28.8945 21.7793 29.0996 21.4277 29.2402 21.0293C29.3926 20.6191 29.4688 20.2031 29.4688 19.7812C29.4688 19.2773 29.3984 18.8613 29.2578 18.5332C29.1172 18.1934 28.9297 17.9121 28.6953 17.6895C28.4727 17.4551 28.2207 17.2559 27.9395 17.0918C27.6582 16.916 27.3711 16.7402 27.0781 16.5645C26.7969 16.3887 26.5215 16.1895 26.252 15.9668C25.9941 15.7441 25.7715 15.457 25.584 15.1055C25.5723 15.7969 25.4551 16.5234 25.2324 17.2852C25.0098 18.0469 24.7051 18.7852 24.3184 19.5C23.9434 20.2148 23.5098 20.8828 23.0176 21.5039C22.5254 22.125 22.0039 22.6465 21.4531 23.0684L21.3125 22.8223C21.6875 22.4238 22.0156 21.9258 22.2969 21.3281C22.5781 20.7305 22.8066 20.1035 22.9824 19.4473C23.1699 18.7793 23.3047 18.1113 23.3867 17.4434C23.4805 16.7754 23.5273 16.166 23.5273 15.6152C23.5273 15.3223 23.498 15.0352 23.4395 14.7539C23.3809 14.4727 23.3516 14.1973 23.3516 13.9277C23.3516 13.5996 23.4453 13.3477 23.6328 13.1719C23.832 12.9961 24.084 12.9082 24.3887 12.9082C24.623 12.9082 24.8105 12.9609 24.9512 13.0664C25.0918 13.1719 25.2207 13.3125 25.3379 13.4883C25.4551 13.6523 25.5723 13.8457 25.6895 14.0684C25.8066 14.2793 25.9531 14.502 26.1289 14.7363C26.3164 14.959 26.5449 15.1816 26.8145 15.4043C27.0957 15.6152 27.4531 15.8027 27.8867 15.9668C28.3906 16.1543 28.8711 16.3711 29.3281 16.6172C29.7969 16.8516 30.207 17.1328 30.5586 17.4609C30.9219 17.7891 31.209 18.1816 31.4199 18.6387C31.6309 19.084 31.7363 19.6113 31.7363 20.2207ZM44.709 21.4863C44.4043 21.9316 44.0352 22.3477 43.6016 22.7344C43.1797 23.1211 42.7109 23.4551 42.1953 23.7363C41.6914 24.0176 41.1582 24.2402 40.5957 24.4043C40.0449 24.5684 39.4883 24.6504 38.9258 24.6504C38.1289 24.6504 37.3848 24.5449 36.6934 24.334C36.002 24.1348 35.3984 23.8242 34.8828 23.4023C34.3672 22.9805 33.9629 22.4531 33.6699 21.8203C33.377 21.1758 33.2305 20.4258 33.2305 19.5703C33.2305 18.7266 33.3828 17.9414 33.6875 17.2148C34.0039 16.4766 34.4316 15.8379 34.9707 15.2988C35.5215 14.748 36.166 14.3145 36.9043 13.998C37.6426 13.6816 38.4336 13.5234 39.2773 13.5234C39.6758 13.5234 40.0449 13.582 40.3848 13.6992C40.7363 13.8047 41.041 13.9688 41.2988 14.1914C41.5566 14.4023 41.7559 14.666 41.8965 14.9824C42.0488 15.2988 42.125 15.6621 42.125 16.0723C42.125 16.5645 42.0254 16.998 41.8262 17.373C41.627 17.748 41.3633 18.0762 41.0352 18.3574C40.707 18.6387 40.332 18.873 39.9102 19.0605C39.5 19.248 39.0664 19.4004 38.6094 19.5176C38.1641 19.6348 37.7188 19.7227 37.2734 19.7812C36.8398 19.8281 36.4414 19.8516 36.0781 19.8516H35.6562C35.8086 20.918 36.2305 21.7324 36.9219 22.2949C37.6133 22.8574 38.5684 23.1387 39.7871 23.1387C40.6543 23.1387 41.498 22.9863 42.3184 22.6816C43.1504 22.377 43.9004 21.9551 44.5684 21.416L44.709 21.4863ZM35.6035 19.3242H36.043C36.4648 19.3242 36.8984 19.2598 37.3438 19.1309C37.7891 18.9902 38.1875 18.791 38.5391 18.5332C38.9023 18.2637 39.2012 17.9355 39.4355 17.5488C39.6699 17.1621 39.7871 16.7227 39.7871 16.2305C39.7871 15.75 39.6816 15.3516 39.4707 15.0352C39.2715 14.7188 38.9199 14.5605 38.416 14.5605C37.9004 14.5605 37.4609 14.7188 37.0977 15.0352C36.7461 15.3398 36.459 15.7207 36.2363 16.1777C36.0137 16.623 35.8496 17.0977 35.7441 17.6016C35.6504 18.0938 35.6035 18.5332 35.6035 18.9199V19.3242ZM59.0352 21.4863C58.8125 21.9082 58.5723 22.3125 58.3145 22.6992C58.0684 23.0859 57.7871 23.4258 57.4707 23.7188C57.1543 24.0117 56.7969 24.2461 56.3984 24.4219C56 24.5977 55.543 24.6855 55.0273 24.6855C54.4414 24.6855 53.9375 24.5391 53.5156 24.2461C53.0938 23.9648 52.7305 23.5898 52.4258 23.1211C52.1328 22.6406 51.8926 22.0957 51.7051 21.4863C51.5293 20.877 51.3828 20.2559 51.2656 19.623C51.1484 18.9902 51.0605 18.3691 51.002 17.7598C50.9434 17.1387 50.8906 16.582 50.8438 16.0898C50.6211 16.2656 50.3516 16.6055 50.0352 17.1094C49.7188 17.6016 49.3965 18.1816 49.0684 18.8496C48.7402 19.5176 48.4238 20.2441 48.1191 21.0293C47.8262 21.8145 47.5859 22.5879 47.3984 23.3496C47.3633 23.5137 47.3047 23.6836 47.2227 23.8594C47.1523 24.0352 47.0586 24.1934 46.9414 24.334C46.8359 24.4863 46.707 24.6094 46.5547 24.7031C46.4023 24.8086 46.2324 24.8613 46.0449 24.8613C45.7402 24.8613 45.5176 24.7559 45.377 24.5449C45.248 24.334 45.1543 24.0938 45.0957 23.8242C44.7559 22.3359 44.5156 20.9121 44.375 19.5527C44.2461 18.1934 44.1816 16.834 44.1816 15.4746C44.1816 15.1465 44.2344 14.8652 44.3398 14.6309C44.457 14.3848 44.6094 14.1855 44.7969 14.0332C44.9844 13.8691 45.207 13.752 45.4648 13.6816C45.7227 13.5996 45.9922 13.5586 46.2734 13.5586C46.3086 13.5586 46.3613 13.5586 46.4316 13.5586C46.5137 13.5586 46.5898 13.5703 46.6602 13.5938C46.7305 13.6055 46.7891 13.6289 46.8359 13.6641C46.8828 13.6992 46.9004 13.7461 46.8887 13.8047C46.584 15.3398 46.4375 16.9043 46.4492 18.498C46.4609 20.0801 46.543 21.6035 46.6953 23.0684C46.8242 22.4824 47.0117 21.8203 47.2578 21.082C47.5156 20.332 47.8086 19.582 48.1367 18.832C48.4766 18.0703 48.8398 17.3496 49.2266 16.6699C49.625 15.9785 50.0293 15.3984 50.4395 14.9297C50.6387 14.707 50.8379 14.5195 51.0371 14.3672C51.248 14.2031 51.5059 14.1211 51.8105 14.1211C51.9863 14.1211 52.1328 14.1562 52.25 14.2266C52.3672 14.2969 52.4609 14.3848 52.5312 14.4902C52.6133 14.5957 52.6719 14.7188 52.707 14.8594C52.7539 14.9883 52.7891 15.1172 52.8125 15.2461C52.8711 15.5859 52.9297 16.0254 52.9883 16.5645C53.0469 17.1035 53.1172 17.6777 53.1992 18.2871C53.293 18.8965 53.4043 19.5117 53.5332 20.1328C53.6621 20.7422 53.8262 21.2988 54.0254 21.8027C54.2246 22.2949 54.4648 22.6992 54.7461 23.0156C55.0273 23.332 55.3613 23.4902 55.748 23.4902C56.0645 23.4902 56.3691 23.4316 56.6621 23.3145C56.9668 23.1855 57.2539 23.0273 57.5234 22.8398C57.793 22.6406 58.0449 22.418 58.2793 22.1719C58.5137 21.9141 58.7246 21.6621 58.9121 21.416L59.0352 21.4863ZM62.2871 9.81445C62.2871 10.0488 62.2344 10.2832 62.1289 10.5176C62.0234 10.752 61.8828 10.9629 61.707 11.1504C61.543 11.3262 61.3496 11.4727 61.127 11.5898C60.9043 11.707 60.6758 11.7656 60.4414 11.7656C60.1367 11.7656 59.8906 11.666 59.7031 11.4668C59.5273 11.2676 59.4395 11.0156 59.4395 10.7109C59.4395 10.4766 59.4922 10.248 59.5977 10.0254C59.7031 9.79102 59.8379 9.58594 60.002 9.41016C60.1777 9.23438 60.3711 9.09375 60.582 8.98828C60.8047 8.87109 61.0332 8.8125 61.2676 8.8125C61.5723 8.8125 61.8184 8.90625 62.0059 9.09375C62.1934 9.28125 62.2871 9.52148 62.2871 9.81445ZM67.209 21.4863C66.9395 21.9316 66.6172 22.3418 66.2422 22.7168C65.8789 23.0801 65.4746 23.4023 65.0293 23.6836C64.5957 23.9531 64.127 24.1641 63.623 24.3164C63.1309 24.4688 62.6211 24.5449 62.0938 24.5449C61.4375 24.5449 60.8516 24.4336 60.3359 24.2109C59.832 23.9883 59.4043 23.6836 59.0527 23.2969C58.7129 22.8984 58.4492 22.4355 58.2617 21.9082C58.0859 21.3691 57.998 20.7832 57.998 20.1504C57.998 19.4707 58.0977 18.8262 58.2969 18.2168C58.4961 17.6074 58.7715 17.0391 59.123 16.5117C59.4746 15.9727 59.8848 15.4805 60.3535 15.0352C60.834 14.5898 61.3438 14.1914 61.8828 13.8398L62.0938 13.998C61.5195 14.6777 61.0508 15.4395 60.6875 16.2832C60.3359 17.127 60.1602 18.0059 60.1602 18.9199C60.1602 19.4473 60.2188 19.957 60.3359 20.4492C60.4648 20.9297 60.6582 21.3574 60.916 21.7324C61.1855 22.1074 61.5254 22.4062 61.9355 22.6289C62.3457 22.8516 62.8438 22.9629 63.4297 22.9629C64.1211 22.9629 64.7773 22.8164 65.3984 22.5234C66.0312 22.2305 66.5996 21.8613 67.1035 21.416L67.209 21.4863ZM81.5352 21.4863C81.3125 21.9082 81.0723 22.3125 80.8145 22.6992C80.5684 23.0859 80.2871 23.4258 79.9707 23.7188C79.6543 24.0117 79.2969 24.2461 78.8984 24.4219C78.5 24.5977 78.043 24.6855 77.5273 24.6855C76.9414 24.6855 76.4375 24.5391 76.0156 24.2461C75.5938 23.9648 75.2305 23.5898 74.9258 23.1211C74.6328 22.6406 74.3926 22.0957 74.2051 21.4863C74.0293 20.877 73.8828 20.2559 73.7656 19.623C73.6484 18.9902 73.5605 18.3691 73.502 17.7598C73.4434 17.1387 73.3906 16.582 73.3438 16.0898C73.1211 16.2656 72.8516 16.6055 72.5352 17.1094C72.2188 17.6016 71.8965 18.1816 71.5684 18.8496C71.2402 19.5176 70.9238 20.2441 70.6191 21.0293C70.3262 21.8145 70.0859 22.5879 69.8984 23.3496C69.8633 23.5137 69.8047 23.6836 69.7227 23.8594C69.6523 24.0352 69.5586 24.1934 69.4414 24.334C69.3359 24.4863 69.207 24.6094 69.0547 24.7031C68.9023 24.8086 68.7324 24.8613 68.5449 24.8613C68.2402 24.8613 68.0176 24.7559 67.877 24.5449C67.748 24.334 67.6543 24.0938 67.5957 23.8242C67.2559 22.3359 67.0156 20.9121 66.875 19.5527C66.7461 18.1934 66.6816 16.834 66.6816 15.4746C66.6816 15.1465 66.7344 14.8652 66.8398 14.6309C66.957 14.3848 67.1094 14.1855 67.2969 14.0332C67.4844 13.8691 67.707 13.752 67.9648 13.6816C68.2227 13.5996 68.4922 13.5586 68.7734 13.5586C68.8086 13.5586 68.8613 13.5586 68.9316 13.5586C69.0137 13.5586 69.0898 13.5703 69.1602 13.5938C69.2305 13.6055 69.2891 13.6289 69.3359 13.6641C69.3828 13.6992 69.4004 13.7461 69.3887 13.8047C69.084 15.3398 68.9375 16.9043 68.9492 18.498C68.9609 20.0801 69.043 21.6035 69.1953 23.0684C69.3242 22.4824 69.5117 21.8203 69.7578 21.082C70.0156 20.332 70.3086 19.582 70.6367 18.832C70.9766 18.0703 71.3398 17.3496 71.7266 16.6699C72.125 15.9785 72.5293 15.3984 72.9395 14.9297C73.1387 14.707 73.3379 14.5195 73.5371 14.3672C73.748 14.2031 74.0059 14.1211 74.3105 14.1211C74.4863 14.1211 74.6328 14.1562 74.75 14.2266C74.8672 14.2969 74.9609 14.3848 75.0312 14.4902C75.1133 14.5957 75.1719 14.7188 75.207 14.8594C75.2539 14.9883 75.2891 15.1172 75.3125 15.2461C75.3711 15.5859 75.4297 16.0254 75.4883 16.5645C75.5469 17.1035 75.6172 17.6777 75.6992 18.2871C75.793 18.8965 75.9043 19.5117 76.0332 20.1328C76.1621 20.7422 76.3262 21.2988 76.5254 21.8027C76.7246 22.2949 76.9648 22.6992 77.2461 23.0156C77.5273 23.332 77.8613 23.4902 78.248 23.4902C78.5645 23.4902 78.8691 23.4316 79.1621 23.3145C79.4668 23.1855 79.7539 23.0273 80.0234 22.8398C80.293 22.6406 80.5449 22.418 80.7793 22.1719C81.0137 21.9141 81.2246 21.6621 81.4121 21.416L81.5352 21.4863ZM90.043 29.3965C90.043 30.3457 89.9316 31.3125 89.709 32.2969C89.4863 33.293 89.1348 34.207 88.6543 35.0391C88.1738 35.8711 87.5527 36.5742 86.791 37.1484C86.041 37.7227 85.1328 38.0801 84.0664 38.2207C83.9609 38.2441 83.8613 38.2617 83.7676 38.2734C83.6738 38.2852 83.5684 38.291 83.4512 38.291C82.8066 38.291 82.1973 38.1621 81.623 37.9043C81.0488 37.6465 80.5449 37.2949 80.1113 36.8496C79.6895 36.416 79.3555 35.9062 79.1094 35.3203C78.8633 34.7461 78.7402 34.1426 78.7402 33.5098C78.7402 32.8066 78.8867 32.1328 79.1797 31.4883C79.4609 30.8438 79.8359 30.2461 80.3047 29.6953C80.7734 29.1562 81.3008 28.6758 81.8867 28.2539C82.4844 27.8438 83.0938 27.5156 83.7148 27.2695L83.8203 27.498C82.6836 28.1074 81.8047 28.9453 81.1836 30.0117C80.5625 31.0781 80.252 32.2559 80.252 33.5449C80.252 34.0723 80.3223 34.582 80.4629 35.0742C80.6152 35.5781 80.8379 36.0176 81.1309 36.3926C81.4238 36.7676 81.7871 37.0664 82.2207 37.2891C82.666 37.5234 83.1758 37.6406 83.75 37.6406C84.5586 37.6406 85.2324 37.4297 85.7715 37.0078C86.3105 36.5859 86.7383 36.0586 87.0547 35.4258C87.3828 34.793 87.6113 34.1016 87.7402 33.3516C87.8809 32.6133 87.9512 31.9219 87.9512 31.2773C87.9512 30.7148 87.916 30.1641 87.8457 29.625C87.7754 29.0859 87.6992 28.5469 87.6172 28.0078C87.5469 27.4805 87.4766 26.9473 87.4062 26.4082C87.3359 25.8691 87.3008 25.3184 87.3008 24.7559C87.3008 24.3574 87.3125 23.9473 87.3359 23.5254C87.3711 23.1035 87.4297 22.6758 87.5117 22.2422C86.9961 22.8516 86.3984 23.373 85.7188 23.8066C85.0508 24.2285 84.3301 24.4395 83.5566 24.4395C83.0762 24.4395 82.6426 24.3457 82.2559 24.1582C81.8809 23.9824 81.5586 23.7422 81.2891 23.4375C81.0312 23.1328 80.832 22.7754 80.6914 22.3652C80.5625 21.9434 80.498 21.5039 80.498 21.0469C80.498 20.5195 80.5801 19.9746 80.7441 19.4121C80.9199 18.8379 81.1543 18.2871 81.4473 17.7598C81.752 17.2207 82.1094 16.7168 82.5195 16.248C82.9297 15.7676 83.375 15.3516 83.8555 15C84.3477 14.6367 84.8633 14.3555 85.4023 14.1562C85.9414 13.9453 86.4922 13.8398 87.0547 13.8398C87.3359 13.8398 87.6172 13.8809 87.8984 13.9629C88.1914 14.0332 88.4551 14.1445 88.6895 14.2969C88.9355 14.4492 89.1289 14.6426 89.2695 14.877C89.4219 15.1113 89.498 15.3926 89.498 15.7207C89.498 15.9551 89.4453 16.166 89.3398 16.3535C89.2344 16.541 89.0996 16.7109 88.9355 16.8633C88.7715 17.0039 88.5898 17.1328 88.3906 17.25C88.1914 17.3672 87.998 17.4668 87.8105 17.5488L87.7402 17.3379C87.834 17.2324 87.8984 17.1035 87.9336 16.9512C87.9688 16.7988 87.9863 16.6523 87.9863 16.5117C87.9863 16.3008 87.9512 16.0898 87.8809 15.8789C87.8223 15.6562 87.7285 15.457 87.5996 15.2812C87.4824 15.0938 87.3301 14.9414 87.1426 14.8242C86.9551 14.707 86.7441 14.6484 86.5098 14.6484C85.9121 14.6484 85.373 14.8125 84.8926 15.1406C84.4121 15.457 84.002 15.8613 83.6621 16.3535C83.334 16.8457 83.0762 17.3848 82.8887 17.9707C82.7129 18.5449 82.625 19.0898 82.625 19.6055C82.625 19.9453 82.6543 20.291 82.7129 20.6426C82.7832 20.9941 82.8945 21.3105 83.0469 21.5918C83.1992 21.873 83.4043 22.1074 83.6621 22.2949C83.9316 22.4707 84.2715 22.5586 84.6816 22.5586C85.3145 22.5586 85.9004 22.3945 86.4395 22.0664C86.9785 21.7266 87.459 21.3281 87.8809 20.8711C88.0449 20.4023 88.2559 19.9629 88.5137 19.5527C88.7832 19.1309 89.1113 18.7676 89.498 18.4629L89.7969 18.6738C89.5273 19.1074 89.3516 19.5996 89.2695 20.1504C89.1875 20.7012 89.1465 21.2402 89.1465 21.7676C89.1465 22.3887 89.1934 23.0098 89.2871 23.6309C89.3809 24.252 89.4805 24.8789 89.5859 25.5117C89.7031 26.1445 89.8086 26.7832 89.9023 27.4277C89.9961 28.0723 90.043 28.7285 90.043 29.3965Z" fill="white"/>
</svg>
