<svg width="83" height="32" viewBox="0 0 83 32" fill="none" xmlns="http://www.w3.org/2000/svg">
<path d="M10.3887 6.38477C10.3887 6.47852 10.3711 6.57227 10.3359 6.66602C10.3125 6.74805 10.2832 6.82422 10.248 6.89453C10.1309 7.19922 10.0078 7.49805 9.87891 7.79102C9.75 8.08398 9.63281 8.38281 9.52734 8.6875C9.10547 10.0117 8.77734 11.4941 8.54297 13.1348C8.32031 14.7637 8.17969 16.4688 8.12109 18.25C8.39062 18.2734 8.6543 18.2969 8.91211 18.3203C9.16992 18.332 9.43359 18.3379 9.70312 18.3379C10.2422 18.3379 10.8223 18.3145 11.4434 18.2676C12.0645 18.2207 12.6738 18.1621 13.2715 18.0918C13.8691 18.0098 14.4258 17.916 14.9414 17.8105C15.4688 17.7051 15.9082 17.5938 16.2598 17.4766L16.4707 17.6875C15.416 18.3438 14.1738 18.8477 12.7441 19.1992C11.3145 19.5508 9.76172 19.791 8.08594 19.9199C8.0625 21.8535 8.11523 23.7578 8.24414 25.6328C8.37305 27.5195 8.56055 29.2891 8.80664 30.9414L8.50781 31.082C8.16797 30.3086 7.875 29.4766 7.62891 28.5859C7.38281 27.6953 7.16602 26.7754 6.97852 25.8262C6.80273 24.877 6.65625 23.9102 6.53906 22.9258C6.43359 21.9414 6.3457 20.9688 6.27539 20.0078C6.04102 20.0195 5.80078 20.0254 5.55469 20.0254C5.32031 20.0254 5.08008 20.0254 4.83398 20.0254C4.62305 20.0254 4.37695 20.0195 4.0957 20.0078C3.82617 19.9844 3.56836 19.9375 3.32227 19.8672C3.07617 19.7852 2.87109 19.6621 2.70703 19.498C2.54297 19.3223 2.46094 19.082 2.46094 18.7773C2.46094 18.5781 2.50781 18.4141 2.60156 18.2852C2.70703 18.1445 2.83008 18.0332 2.9707 17.9512C3.12305 17.8574 3.28711 17.793 3.46289 17.7578C3.65039 17.7109 3.83203 17.6875 4.00781 17.6875C4.10156 17.6875 4.18945 17.6934 4.27148 17.7051C4.36523 17.7168 4.45898 17.7344 4.55273 17.7578C4.82227 17.793 5.0918 17.834 5.36133 17.8809C5.63086 17.916 5.90039 17.9512 6.16992 17.9863C6.14648 17.541 6.13477 17.1016 6.13477 16.668C6.13477 16.2227 6.13477 15.7949 6.13477 15.3848C6.13477 14.9863 6.14062 14.5234 6.15234 13.9961C6.16406 13.457 6.19336 12.8887 6.24023 12.291C6.29883 11.6934 6.375 11.0957 6.46875 10.498C6.57422 9.88867 6.71484 9.31445 6.89062 8.77539C7.06641 8.23633 7.28906 7.75586 7.55859 7.33398C7.82812 6.91211 8.15625 6.58398 8.54297 6.34961C8.74219 6.24414 8.95312 6.14453 9.17578 6.05078C9.41016 5.94531 9.63281 5.89258 9.84375 5.89258C10.207 5.89258 10.3887 6.05664 10.3887 6.38477ZM23.168 1.19922C22.3125 1.85547 21.3164 2.42383 20.1797 2.9043C19.043 3.37305 17.8535 3.76562 16.6113 4.08203C15.3691 4.39844 14.127 4.63281 12.8848 4.78516C11.6426 4.9375 10.4883 5.01367 9.42188 5.01367C9.09375 5.01367 8.67773 4.99609 8.17383 4.96094C7.66992 4.92578 7.125 4.87305 6.53906 4.80273C5.96484 4.73242 5.37305 4.63867 4.76367 4.52148C4.1543 4.39258 3.57422 4.24609 3.02344 4.08203C2.48438 3.90625 2.00391 3.70117 1.58203 3.4668C1.16016 3.23242 0.84375 2.96875 0.632812 2.67578C0.503906 2.47656 0.369141 2.25391 0.228516 2.00781C0.0878906 1.75 0.0175781 1.49219 0.0175781 1.23438C0.0175781 0.90625 0.199219 0.742188 0.5625 0.742188C0.65625 0.742188 0.738281 0.748047 0.808594 0.759766C0.878906 0.771484 0.960938 0.789063 1.05469 0.8125C1.5 0.953125 1.92188 1.09961 2.32031 1.25195C2.73047 1.4043 3.15234 1.54492 3.58594 1.67383C5.00391 2.00195 6.42773 2.24805 7.85742 2.41211C9.29883 2.56445 10.752 2.64062 12.2168 2.64062C13.998 2.64062 15.8262 2.50586 17.7012 2.23633C19.5762 1.9668 21.3516 1.51562 23.0273 0.882812L23.168 1.19922ZM29.0039 23.0664C28.6289 23.8398 28.1016 24.4551 27.4219 24.9121C26.7422 25.3574 25.9688 25.5801 25.1016 25.5801C24.3867 25.5801 23.748 25.3633 23.1855 24.9297C22.623 24.4961 22.125 23.9277 21.6914 23.2246C21.2695 22.5215 20.9062 21.7305 20.6016 20.8516C20.3086 19.9609 20.0625 19.0586 19.8633 18.1445C19.6758 17.2305 19.5352 16.3516 19.4414 15.5078C19.3594 14.6523 19.3184 13.9082 19.3184 13.2754C19.3184 12.502 19.3594 11.6523 19.4414 10.7266C19.5234 9.80078 19.6582 8.86914 19.8457 7.93164C20.0332 6.98242 20.2734 6.0625 20.5664 5.17188C20.8711 4.28125 21.2344 3.49609 21.6562 2.81641C22.0898 2.125 22.5879 1.57422 23.1504 1.16406C23.7129 0.742188 24.3574 0.53125 25.084 0.53125C25.7051 0.53125 26.209 0.712891 26.5957 1.07617C26.9824 1.43945 27.2871 1.89062 27.5098 2.42969C27.7324 2.95703 27.8789 3.51953 27.9492 4.11719C28.0312 4.71484 28.0723 5.24805 28.0723 5.7168C28.0723 6.98242 27.9199 8.23047 27.6152 9.46094C27.3223 10.6797 26.9121 11.834 26.3848 12.9238C25.8691 14.002 25.2598 14.9863 24.5566 15.877C23.8535 16.7559 23.0977 17.4941 22.2891 18.0918C22.4531 18.877 22.6465 19.6445 22.8691 20.3945C23.1035 21.1328 23.3848 21.7949 23.7129 22.3809C24.041 22.9551 24.416 23.4238 24.8379 23.7871C25.2715 24.1387 25.7637 24.3145 26.3145 24.3145C26.8652 24.3145 27.3398 24.2031 27.7383 23.9805C28.1367 23.7578 28.5059 23.4297 28.8457 22.9961L29.0039 23.0664ZM21.7617 12.2207C21.75 12.4785 21.7441 12.7949 21.7441 13.1699C21.7559 13.5449 21.7734 13.9609 21.7969 14.418C21.832 14.8633 21.8789 15.3438 21.9375 15.8594C21.9961 16.375 22.0723 16.9023 22.166 17.4414C22.9512 16.7383 23.6191 15.959 24.1699 15.1035C24.7207 14.248 25.1719 13.3281 25.5234 12.3438C25.875 11.3477 26.127 10.3047 26.2793 9.21484C26.4434 8.11328 26.5254 6.9707 26.5254 5.78711C26.5254 5.63477 26.5195 5.43555 26.5078 5.18945C26.5078 4.94336 26.4902 4.67969 26.4551 4.39844C26.4199 4.11719 26.3672 3.83594 26.2969 3.55469C26.2383 3.27344 26.1504 3.02148 26.0332 2.79883C25.9277 2.56445 25.7871 2.37695 25.6113 2.23633C25.4473 2.08398 25.248 2.00781 25.0137 2.00781C24.5684 2.00781 24.1758 2.23047 23.8359 2.67578C23.5078 3.10938 23.2207 3.66602 22.9746 4.3457C22.7402 5.02539 22.541 5.77539 22.377 6.5957C22.2246 7.41602 22.1016 8.20703 22.0078 8.96875C21.9141 9.71875 21.8496 10.3926 21.8145 10.9902C21.7793 11.5879 21.7617 11.998 21.7617 12.2207ZM38.918 19.8145C38.918 20.6348 38.7832 21.3965 38.5137 22.0996C38.2441 22.8027 37.8633 23.4121 37.3711 23.9277C36.8789 24.4434 36.2871 24.8477 35.5957 25.1406C34.916 25.4336 34.1602 25.5801 33.3281 25.5801C32.5898 25.5801 31.9219 25.4395 31.3242 25.1582C30.7383 24.8887 30.2344 24.5195 29.8125 24.0508C29.3906 23.582 29.0684 23.0371 28.8457 22.416C28.623 21.7832 28.5117 21.1094 28.5117 20.3945C28.5117 19.7969 28.5938 19.2285 28.7578 18.6895C28.9336 18.1504 29.1738 17.6523 29.4785 17.1953C29.7832 16.7266 30.1465 16.2988 30.5684 15.9121C30.9902 15.5137 31.4473 15.1562 31.9395 14.8398L32.1504 14.998C31.6582 15.5723 31.2715 16.2051 30.9902 16.8965C30.709 17.5879 30.5684 18.3203 30.5684 19.0938C30.5684 19.6562 30.6504 20.2305 30.8145 20.8164C30.9902 21.3906 31.2422 21.918 31.5703 22.3984C31.8984 22.8789 32.3086 23.2715 32.8008 23.5762C33.293 23.8809 33.8555 24.0332 34.4883 24.0332C34.8867 24.0332 35.2617 23.9512 35.6133 23.7871C35.9648 23.623 36.2695 23.4004 36.5273 23.1191C36.7969 22.8379 37.0078 22.5215 37.1602 22.1699C37.3242 21.8066 37.4062 21.4316 37.4062 21.0449C37.4062 20.6699 37.3477 20.3066 37.2305 19.9551C37.125 19.5918 36.9727 19.2578 36.7734 18.9531C36.5742 18.6367 36.334 18.3555 36.0527 18.1094C35.7715 17.8516 35.4668 17.6406 35.1387 17.4766C34.9512 17.3828 34.7695 17.3125 34.5938 17.2656C34.4297 17.2188 34.248 17.166 34.0488 17.1074C33.9668 17.0957 33.8789 17.0781 33.7852 17.0547C33.6914 17.0195 33.6035 16.9844 33.5215 16.9492C33.4395 16.9023 33.3691 16.8438 33.3105 16.7734C33.252 16.7031 33.2227 16.6152 33.2227 16.5098C33.2227 16.2988 33.2988 16.1055 33.4512 15.9297C33.6035 15.7539 33.7852 15.6016 33.9961 15.4727C34.207 15.332 34.4297 15.2266 34.6641 15.1562C34.8984 15.0742 35.1035 15.0332 35.2793 15.0332C35.877 15.0332 36.4043 15.1855 36.8613 15.4902C37.3184 15.7949 37.6992 16.1816 38.0039 16.6504C38.3086 17.1191 38.5371 17.6348 38.6895 18.1973C38.8418 18.7598 38.918 19.2988 38.918 19.8145ZM57.3926 14.5938C57.3926 15.2383 57.3281 15.9648 57.1992 16.7734C57.0703 17.5703 56.8828 18.3789 56.6367 19.1992C56.4023 20.0195 56.1152 20.8164 55.7754 21.5898C55.4473 22.3633 55.0723 23.0547 54.6504 23.6641C54.2402 24.2617 53.7949 24.7422 53.3145 25.1055C52.8457 25.4688 52.3535 25.6504 51.8379 25.6504C51.5332 25.6504 51.2344 25.4688 50.9414 25.1055C50.6602 24.7539 50.3848 24.291 50.1152 23.7168C49.8574 23.1426 49.6172 22.5039 49.3945 21.8008C49.1719 21.0977 48.9668 20.4004 48.7793 19.709C48.6035 20.3535 48.4102 21.0273 48.1992 21.7305C47.9883 22.4336 47.7305 23.0781 47.4258 23.6641C47.1211 24.2383 46.7637 24.7129 46.3535 25.0879C45.9434 25.4629 45.457 25.6504 44.8945 25.6504C44.5312 25.6504 44.1973 25.4805 43.8926 25.1406C43.5996 24.8008 43.3301 24.373 43.084 23.8574C42.8496 23.3301 42.6328 22.75 42.4336 22.1172C42.2461 21.4727 42.082 20.8516 41.9414 20.2539C41.8125 19.6445 41.7012 19.0938 41.6074 18.6016C41.5137 18.1094 41.4434 17.7461 41.3965 17.5117C41.3848 17.4766 41.3672 17.3887 41.3438 17.248C41.3203 17.1074 41.291 16.9609 41.2559 16.8086C41.2207 16.6562 41.1738 16.5215 41.1152 16.4043C41.0684 16.2754 41.0215 16.2109 40.9746 16.2109C40.7754 16.2109 40.541 16.2754 40.2715 16.4043C40.0137 16.5215 39.8027 16.627 39.6387 16.7207L39.5332 16.5449C39.6973 16.3691 39.8965 16.1875 40.1309 16C40.377 15.8008 40.6348 15.6191 40.9043 15.4551C41.1855 15.291 41.4668 15.1562 41.748 15.0508C42.041 14.9453 42.3105 14.8926 42.5566 14.8926C42.7676 14.8926 42.9551 14.9863 43.1191 15.1738C43.2949 15.3496 43.4414 15.5781 43.5586 15.8594C43.6758 16.1406 43.7754 16.457 43.8574 16.8086C43.9512 17.1484 44.0215 17.4883 44.0684 17.8281C44.127 18.1562 44.168 18.4551 44.1914 18.7246C44.2266 18.9941 44.2559 19.1992 44.2793 19.3398C44.291 19.4336 44.3203 19.627 44.3672 19.9199C44.4141 20.2012 44.4727 20.5352 44.543 20.9219C44.6133 21.2969 44.6895 21.6953 44.7715 22.1172C44.8652 22.5273 44.9648 22.9082 45.0703 23.2598C45.1758 23.5996 45.2812 23.8867 45.3867 24.1211C45.5039 24.3438 45.6152 24.4551 45.7207 24.4551C46.0488 24.4551 46.3535 24.25 46.6348 23.8398C46.916 23.418 47.168 22.8965 47.3906 22.2754C47.625 21.6543 47.8301 20.9922 48.0059 20.2891C48.1816 19.5859 48.3223 18.9414 48.4277 18.3555C48.3105 17.8867 48.2109 17.4707 48.1289 17.1074C48.0469 16.7324 47.9766 16.4336 47.918 16.2109C47.8945 16.1641 47.8828 16.082 47.8828 15.9648C47.8828 15.8008 47.9414 15.6484 48.0586 15.5078C48.1758 15.3672 48.3223 15.2441 48.498 15.1387C48.6738 15.0332 48.8555 14.9512 49.043 14.8926C49.2305 14.834 49.3945 14.8047 49.5352 14.8047C49.7695 14.8047 49.9629 14.916 50.1152 15.1387C50.2676 15.3496 50.3906 15.6016 50.4844 15.8945C50.5781 16.1875 50.6484 16.4863 50.6953 16.791C50.7539 17.084 50.8008 17.3125 50.8359 17.4766C50.8477 17.5586 50.8828 17.7871 50.9414 18.1621C51.0117 18.5371 51.0996 18.9824 51.2051 19.498C51.3105 20.0137 51.4219 20.5645 51.5391 21.1504C51.668 21.7246 51.7969 22.2578 51.9258 22.75C52.0664 23.2422 52.2012 23.6523 52.3301 23.9805C52.459 24.2969 52.5762 24.4551 52.6816 24.4551C52.998 24.4551 53.291 24.3496 53.5605 24.1387C53.8301 23.916 54.0703 23.6289 54.2812 23.2773C54.5039 22.9141 54.6914 22.5039 54.8438 22.0469C55.0078 21.5781 55.1426 21.0918 55.248 20.5879C55.3652 20.084 55.4473 19.5859 55.4941 19.0938C55.5527 18.5898 55.582 18.1211 55.582 17.6875C55.582 17.3242 55.5586 16.9316 55.5117 16.5098C55.4648 16.0762 55.3887 15.6484 55.2832 15.2266C55.1777 14.8047 55.0371 14.4004 54.8613 14.0137C54.6973 13.6152 54.498 13.2754 54.2637 12.9941C54.0293 12.7012 53.7598 12.4785 53.4551 12.3262C53.1504 12.1738 52.8047 12.1211 52.418 12.168L52.3828 12.0098C52.6875 11.8574 53.0098 11.7402 53.3496 11.6582C53.6895 11.5762 54.041 11.5352 54.4043 11.5352C55.4004 11.5352 56.1445 11.8105 56.6367 12.3613C57.1406 12.9004 57.3926 13.6445 57.3926 14.5938ZM70.084 22.4863C69.7793 22.9316 69.4102 23.3477 68.9766 23.7344C68.5547 24.1211 68.0859 24.4551 67.5703 24.7363C67.0664 25.0176 66.5332 25.2402 65.9707 25.4043C65.4199 25.5684 64.8633 25.6504 64.3008 25.6504C63.5039 25.6504 62.7598 25.5449 62.0684 25.334C61.377 25.1348 60.7734 24.8242 60.2578 24.4023C59.7422 23.9805 59.3379 23.4531 59.0449 22.8203C58.752 22.1758 58.6055 21.4258 58.6055 20.5703C58.6055 19.7266 58.7578 18.9414 59.0625 18.2148C59.3789 17.4766 59.8066 16.8379 60.3457 16.2988C60.8965 15.748 61.541 15.3145 62.2793 14.998C63.0176 14.6816 63.8086 14.5234 64.6523 14.5234C65.0508 14.5234 65.4199 14.582 65.7598 14.6992C66.1113 14.8047 66.416 14.9688 66.6738 15.1914C66.9316 15.4023 67.1309 15.666 67.2715 15.9824C67.4238 16.2988 67.5 16.6621 67.5 17.0723C67.5 17.5645 67.4004 17.998 67.2012 18.373C67.002 18.748 66.7383 19.0762 66.4102 19.3574C66.082 19.6387 65.707 19.873 65.2852 20.0605C64.875 20.248 64.4414 20.4004 63.9844 20.5176C63.5391 20.6348 63.0938 20.7227 62.6484 20.7812C62.2148 20.8281 61.8164 20.8516 61.4531 20.8516H61.0312C61.1836 21.918 61.6055 22.7324 62.2969 23.2949C62.9883 23.8574 63.9434 24.1387 65.1621 24.1387C66.0293 24.1387 66.873 23.9863 67.6934 23.6816C68.5254 23.377 69.2754 22.9551 69.9434 22.416L70.084 22.4863ZM60.9785 20.3242H61.418C61.8398 20.3242 62.2734 20.2598 62.7188 20.1309C63.1641 19.9902 63.5625 19.791 63.9141 19.5332C64.2773 19.2637 64.5762 18.9355 64.8105 18.5488C65.0449 18.1621 65.1621 17.7227 65.1621 17.2305C65.1621 16.75 65.0566 16.3516 64.8457 16.0352C64.6465 15.7188 64.2949 15.5605 63.791 15.5605C63.2754 15.5605 62.8359 15.7188 62.4727 16.0352C62.1211 16.3398 61.834 16.7207 61.6113 17.1777C61.3887 17.623 61.2246 18.0977 61.1191 18.6016C61.0254 19.0938 60.9785 19.5332 60.9785 19.9199V20.3242ZM82.7402 22.4863C82.5293 22.9551 82.2598 23.377 81.9316 23.752C81.6152 24.127 81.2695 24.4492 80.8945 24.7188C80.5195 24.9766 80.1328 25.1758 79.7344 25.3164C79.3359 25.4688 78.9551 25.5449 78.5918 25.5449C77.9121 25.5449 77.3379 25.4277 76.8691 25.1934C76.4004 24.959 76.0195 24.6426 75.7266 24.2441C75.4336 23.8457 75.2227 23.377 75.0938 22.8379C74.9648 22.2988 74.9004 21.7246 74.9004 21.1152C74.9004 20.6465 74.9355 20.1602 75.0059 19.6562C75.0762 19.1523 75.1758 18.666 75.3047 18.1973C75.3281 18.127 75.3516 18.0449 75.375 17.9512C75.3984 17.8457 75.4102 17.7578 75.4102 17.6875C75.4102 17.6289 75.375 17.582 75.3047 17.5469C75.1055 17.4766 74.8945 17.4121 74.6719 17.3535C74.4492 17.2832 74.2266 17.207 74.0039 17.125C73.793 17.043 73.5879 16.9492 73.3887 16.8438C73.2012 16.7383 73.0371 16.6035 72.8965 16.4395C72.8848 17.1426 72.7676 17.8574 72.5449 18.584C72.3223 19.2988 72.0234 19.9902 71.6484 20.6582C71.2852 21.3145 70.8574 21.9297 70.3652 22.5039C69.873 23.0781 69.3516 23.5762 68.8008 23.998L68.625 23.8223C68.9648 23.4473 69.2754 23.002 69.5566 22.4863C69.8379 21.9707 70.0781 21.4316 70.2773 20.8691C70.4766 20.3066 70.6289 19.7383 70.7344 19.1641C70.8516 18.5898 70.9102 18.0508 70.9102 17.5469C70.9102 17.2891 70.8867 17.0488 70.8398 16.8262C70.793 16.5918 70.7402 16.3691 70.6816 16.1582C70.6348 15.9473 70.5879 15.748 70.541 15.5605C70.4941 15.3613 70.4707 15.1621 70.4707 14.9629C70.4707 14.6348 70.5762 14.377 70.7871 14.1895C70.998 14.002 71.2676 13.9082 71.5957 13.9082C71.7715 13.9082 71.9062 13.9609 72 14.0664C72.0938 14.1602 72.1758 14.2773 72.2461 14.418C72.3164 14.5586 72.3984 14.7051 72.4922 14.8574C72.5859 15.0098 72.7207 15.1387 72.8965 15.2441C73.1191 15.373 73.4004 15.4668 73.7402 15.5254C74.0801 15.584 74.4375 15.6367 74.8125 15.6836C75.1875 15.7305 75.5625 15.7773 75.9375 15.8242C76.3125 15.8711 76.6465 15.9531 76.9395 16.0703C77.2441 16.1758 77.4902 16.3281 77.6777 16.5273C77.8652 16.7148 77.959 16.9727 77.959 17.3008C77.959 17.4648 77.9414 17.6289 77.9062 17.793C77.8828 17.9453 77.8418 18.0918 77.7832 18.2324C77.6426 18.7246 77.5195 19.2285 77.4141 19.7441C77.3203 20.248 77.2734 20.752 77.2734 21.2559C77.2734 21.6895 77.3027 22.0879 77.3613 22.4512C77.4316 22.8027 77.5547 23.1074 77.7305 23.3652C77.9062 23.623 78.1406 23.8223 78.4336 23.9629C78.7266 24.1035 79.1016 24.1738 79.5586 24.1738C80.2148 24.1738 80.7891 24.0156 81.2812 23.6992C81.7734 23.3711 82.207 22.9434 82.582 22.416L82.7402 22.4863Z" fill="white"/>
</svg>
