<svg width="47" height="33" viewBox="0 0 47 33" fill="none" xmlns="http://www.w3.org/2000/svg">
<path d="M27.791 32.1562C27.416 32.4492 26.9941 32.6484 26.5254 32.7539C26.0566 32.8594 25.5762 32.9121 25.084 32.9121C23.3379 32.9121 21.8027 32.6484 20.4785 32.1211C19.1543 31.5938 18 30.873 17.0156 29.959C16.043 29.0449 15.2285 27.9668 14.5723 26.7246C13.916 25.4941 13.3828 24.1699 12.9727 22.752C12.5742 21.3223 12.2754 19.8457 12.0762 18.3223C11.8887 16.7871 11.7715 15.2637 11.7246 13.752C11.6895 12.2402 11.707 10.7754 11.7773 9.35742C11.8594 7.93945 11.9648 6.63867 12.0938 5.45508C11.4141 6.32227 10.7695 7.36523 10.1602 8.58398C9.55078 9.80273 8.98242 11.1094 8.45508 12.5039C7.93945 13.8984 7.45898 15.334 7.01367 16.8105C6.56836 18.2754 6.16406 19.7051 5.80078 21.0996C5.44922 22.4941 5.13281 23.8008 4.85156 25.0195C4.58203 26.2383 4.35352 27.2812 4.16602 28.1484C4.14258 28.2422 4.11328 28.3652 4.07812 28.5176C4.05469 28.6699 4.00781 28.8164 3.9375 28.957C3.87891 29.0977 3.79688 29.2148 3.69141 29.3086C3.58594 29.4141 3.45703 29.4668 3.30469 29.4668C3.16406 29.4668 3.0293 29.4199 2.90039 29.3262C2.77148 29.2441 2.6543 29.1387 2.54883 29.0098C2.44336 28.8926 2.34961 28.7578 2.26758 28.6055C2.19727 28.4648 2.14453 28.3301 2.10938 28.2012C1.75781 27.0645 1.49414 25.8398 1.31836 24.5273C1.1543 23.2266 1.03711 21.9082 0.966797 20.5723C0.908203 19.2246 0.878906 17.8887 0.878906 16.5645C0.890625 15.2402 0.896484 13.9863 0.896484 12.8027C0.896484 11.4902 0.914062 10.1777 0.949219 8.86523C0.984375 7.55273 1.04883 6.24023 1.14258 4.92773C1.17773 4.45898 1.22461 3.9375 1.2832 3.36328C1.35352 2.78906 1.48828 2.25586 1.6875 1.76367C1.88672 1.27148 2.17383 0.861328 2.54883 0.533203C2.92383 0.193359 3.43945 0.0234375 4.0957 0.0234375C4.25977 0.0234375 4.39453 0.0644531 4.5 0.146484C4.61719 0.216797 4.67578 0.345703 4.67578 0.533203V0.673828C4.52344 2.06836 4.38281 3.43945 4.25391 4.78711C4.125 6.12305 4.00781 7.45898 3.90234 8.79492C3.80859 10.1309 3.73242 11.4785 3.67383 12.8379C3.62695 14.1855 3.60352 15.5684 3.60352 16.9863C3.60352 18.3691 3.63281 19.7578 3.69141 21.1523C3.75 22.5352 3.84961 23.918 3.99023 25.3008C4.42383 23.3086 4.875 21.3633 5.34375 19.4648C5.82422 17.5664 6.36914 15.709 6.97852 13.8926C7.58789 12.0645 8.29102 10.2832 9.08789 8.54883C9.88477 6.81445 10.8164 5.11523 11.8828 3.45117C11.9766 3.29883 12.0938 3.12305 12.2344 2.92383C12.3867 2.71289 12.5508 2.51953 12.7266 2.34375C12.9141 2.15625 13.1074 1.99805 13.3066 1.86914C13.5059 1.74023 13.7109 1.67578 13.9219 1.67578C14.1797 1.67578 14.3789 1.79297 14.5195 2.02734C14.6719 2.26172 14.7773 2.53711 14.8359 2.85352C14.9062 3.1582 14.9473 3.46875 14.959 3.78516C14.9707 4.10156 14.9766 4.34766 14.9766 4.52344C14.8945 5.625 14.7949 6.86133 14.6777 8.23242C14.5723 9.60352 14.502 11.0391 14.4668 12.5391C14.4316 14.0391 14.4492 15.5625 14.5195 17.1094C14.6016 18.6562 14.7832 20.1562 15.0645 21.6094C15.3457 23.0508 15.7559 24.4043 16.2949 25.6699C16.834 26.9473 17.543 28.0605 18.4219 29.0098C19.3125 29.959 20.3906 30.709 21.6562 31.2598C22.9336 31.8105 24.4512 32.0859 26.209 32.0859C26.4551 32.0859 26.707 32.0625 26.9648 32.0156C27.2344 31.9805 27.4863 31.9102 27.7207 31.8047L27.791 32.1562ZM29.8828 21.4863C29.5781 21.9316 29.209 22.3477 28.7754 22.7344C28.3535 23.1211 27.8848 23.4551 27.3691 23.7363C26.8652 24.0176 26.332 24.2402 25.7695 24.4043C25.2188 24.5684 24.6621 24.6504 24.0996 24.6504C23.3027 24.6504 22.5586 24.5449 21.8672 24.334C21.1758 24.1348 20.5723 23.8242 20.0566 23.4023C19.541 22.9805 19.1367 22.4531 18.8438 21.8203C18.5508 21.1758 18.4043 20.4258 18.4043 19.5703C18.4043 18.7266 18.5566 17.9414 18.8613 17.2148C19.1777 16.4766 19.6055 15.8379 20.1445 15.2988C20.6953 14.748 21.3398 14.3145 22.0781 13.998C22.8164 13.6816 23.6074 13.5234 24.4512 13.5234C24.8496 13.5234 25.2188 13.582 25.5586 13.6992C25.9102 13.8047 26.2148 13.9688 26.4727 14.1914C26.7305 14.4023 26.9297 14.666 27.0703 14.9824C27.2227 15.2988 27.2988 15.6621 27.2988 16.0723C27.2988 16.5645 27.1992 16.998 27 17.373C26.8008 17.748 26.5371 18.0762 26.209 18.3574C25.8809 18.6387 25.5059 18.873 25.084 19.0605C24.6738 19.248 24.2402 19.4004 23.7832 19.5176C23.3379 19.6348 22.8926 19.7227 22.4473 19.7812C22.0137 19.8281 21.6152 19.8516 21.252 19.8516H20.8301C20.9824 20.918 21.4043 21.7324 22.0957 22.2949C22.7871 22.8574 23.7422 23.1387 24.9609 23.1387C25.8281 23.1387 26.6719 22.9863 27.4922 22.6816C28.3242 22.377 29.0742 21.9551 29.7422 21.416L29.8828 21.4863ZM20.7773 19.3242H21.2168C21.6387 19.3242 22.0723 19.2598 22.5176 19.1309C22.9629 18.9902 23.3613 18.791 23.7129 18.5332C24.0762 18.2637 24.375 17.9355 24.6094 17.5488C24.8438 17.1621 24.9609 16.7227 24.9609 16.2305C24.9609 15.75 24.8555 15.3516 24.6445 15.0352C24.4453 14.7188 24.0938 14.5605 23.5898 14.5605C23.0742 14.5605 22.6348 14.7188 22.2715 15.0352C21.9199 15.3398 21.6328 15.7207 21.4102 16.1777C21.1875 16.623 21.0234 17.0977 20.918 17.6016C20.8242 18.0938 20.7773 18.5332 20.7773 18.9199V19.3242ZM46.1602 13.5938C46.1602 14.2383 46.0957 14.9648 45.9668 15.7734C45.8379 16.5703 45.6504 17.3789 45.4043 18.1992C45.1699 19.0195 44.8828 19.8164 44.543 20.5898C44.2148 21.3633 43.8398 22.0547 43.418 22.6641C43.0078 23.2617 42.5625 23.7422 42.082 24.1055C41.6133 24.4688 41.1211 24.6504 40.6055 24.6504C40.3008 24.6504 40.002 24.4688 39.709 24.1055C39.4277 23.7539 39.1523 23.291 38.8828 22.7168C38.625 22.1426 38.3848 21.5039 38.1621 20.8008C37.9395 20.0977 37.7344 19.4004 37.5469 18.709C37.3711 19.3535 37.1777 20.0273 36.9668 20.7305C36.7559 21.4336 36.498 22.0781 36.1934 22.6641C35.8887 23.2383 35.5312 23.7129 35.1211 24.0879C34.7109 24.4629 34.2246 24.6504 33.6621 24.6504C33.2988 24.6504 32.9648 24.4805 32.6602 24.1406C32.3672 23.8008 32.0977 23.373 31.8516 22.8574C31.6172 22.3301 31.4004 21.75 31.2012 21.1172C31.0137 20.4727 30.8496 19.8516 30.709 19.2539C30.5801 18.6445 30.4688 18.0938 30.375 17.6016C30.2812 17.1094 30.2109 16.7461 30.1641 16.5117C30.1523 16.4766 30.1348 16.3887 30.1113 16.248C30.0879 16.1074 30.0586 15.9609 30.0234 15.8086C29.9883 15.6562 29.9414 15.5215 29.8828 15.4043C29.8359 15.2754 29.7891 15.2109 29.7422 15.2109C29.543 15.2109 29.3086 15.2754 29.0391 15.4043C28.7812 15.5215 28.5703 15.627 28.4062 15.7207L28.3008 15.5449C28.4648 15.3691 28.6641 15.1875 28.8984 15C29.1445 14.8008 29.4023 14.6191 29.6719 14.4551C29.9531 14.291 30.2344 14.1562 30.5156 14.0508C30.8086 13.9453 31.0781 13.8926 31.3242 13.8926C31.5352 13.8926 31.7227 13.9863 31.8867 14.1738C32.0625 14.3496 32.209 14.5781 32.3262 14.8594C32.4434 15.1406 32.543 15.457 32.625 15.8086C32.7188 16.1484 32.7891 16.4883 32.8359 16.8281C32.8945 17.1562 32.9355 17.4551 32.959 17.7246C32.9941 17.9941 33.0234 18.1992 33.0469 18.3398C33.0586 18.4336 33.0879 18.627 33.1348 18.9199C33.1816 19.2012 33.2402 19.5352 33.3105 19.9219C33.3809 20.2969 33.457 20.6953 33.5391 21.1172C33.6328 21.5273 33.7324 21.9082 33.8379 22.2598C33.9434 22.5996 34.0488 22.8867 34.1543 23.1211C34.2715 23.3438 34.3828 23.4551 34.4883 23.4551C34.8164 23.4551 35.1211 23.25 35.4023 22.8398C35.6836 22.418 35.9355 21.8965 36.1582 21.2754C36.3926 20.6543 36.5977 19.9922 36.7734 19.2891C36.9492 18.5859 37.0898 17.9414 37.1953 17.3555C37.0781 16.8867 36.9785 16.4707 36.8965 16.1074C36.8145 15.7324 36.7441 15.4336 36.6855 15.2109C36.6621 15.1641 36.6504 15.082 36.6504 14.9648C36.6504 14.8008 36.709 14.6484 36.8262 14.5078C36.9434 14.3672 37.0898 14.2441 37.2656 14.1387C37.4414 14.0332 37.623 13.9512 37.8105 13.8926C37.998 13.834 38.1621 13.8047 38.3027 13.8047C38.5371 13.8047 38.7305 13.916 38.8828 14.1387C39.0352 14.3496 39.1582 14.6016 39.252 14.8945C39.3457 15.1875 39.416 15.4863 39.4629 15.791C39.5215 16.084 39.5684 16.3125 39.6035 16.4766C39.6152 16.5586 39.6504 16.7871 39.709 17.1621C39.7793 17.5371 39.8672 17.9824 39.9727 18.498C40.0781 19.0137 40.1895 19.5645 40.3066 20.1504C40.4355 20.7246 40.5645 21.2578 40.6934 21.75C40.834 22.2422 40.9688 22.6523 41.0977 22.9805C41.2266 23.2969 41.3438 23.4551 41.4492 23.4551C41.7656 23.4551 42.0586 23.3496 42.3281 23.1387C42.5977 22.916 42.8379 22.6289 43.0488 22.2773C43.2715 21.9141 43.459 21.5039 43.6113 21.0469C43.7754 20.5781 43.9102 20.0918 44.0156 19.5879C44.1328 19.084 44.2148 18.5859 44.2617 18.0938C44.3203 17.5898 44.3496 17.1211 44.3496 16.6875C44.3496 16.3242 44.3262 15.9316 44.2793 15.5098C44.2324 15.0762 44.1562 14.6484 44.0508 14.2266C43.9453 13.8047 43.8047 13.4004 43.6289 13.0137C43.4648 12.6152 43.2656 12.2754 43.0312 11.9941C42.7969 11.7012 42.5273 11.4785 42.2227 11.3262C41.918 11.1738 41.5723 11.1211 41.1855 11.168L41.1504 11.0098C41.4551 10.8574 41.7773 10.7402 42.1172 10.6582C42.457 10.5762 42.8086 10.5352 43.1719 10.5352C44.168 10.5352 44.9121 10.8105 45.4043 11.3613C45.9082 11.9004 46.1602 12.6445 46.1602 13.5938Z" fill="white"/>
</svg>
