<svg width="64" height="34" viewBox="0 0 64 34" fill="none" xmlns="http://www.w3.org/2000/svg">
<path d="M37.0254 33.1562C36.627 33.4492 36.1934 33.6484 35.7246 33.7539C35.2676 33.8594 34.8047 33.9121 34.3359 33.9121C32.7305 33.9121 31.3008 33.6719 30.0469 33.1914C28.8047 32.7227 27.709 32.0723 26.7598 31.2402C25.8223 30.4082 25.0195 29.4297 24.3516 28.3047C23.6953 27.1797 23.1445 25.9668 22.6992 24.666C22.2656 23.3652 21.9316 22.0059 21.6973 20.5879C21.4629 19.1699 21.3047 17.7578 21.2227 16.3516C21.1406 14.9336 21.1172 13.5508 21.1523 12.2031C21.1992 10.8438 21.2812 9.58398 21.3984 8.42383C21.1875 8.74023 20.9297 9.24414 20.625 9.93555C20.3203 10.627 19.9805 11.4355 19.6055 12.3613C19.2422 13.2871 18.8613 14.3008 18.4629 15.4023C18.0645 16.4922 17.666 17.5938 17.2676 18.707C16.8809 19.8203 16.5 20.916 16.125 21.9941C15.7617 23.0605 15.4336 24.0332 15.1406 24.9121C14.8594 25.791 14.6133 26.5352 14.4023 27.1445C14.2031 27.7656 14.0742 28.1816 14.0156 28.3926C13.9688 28.5332 13.9043 28.709 13.8223 28.9199C13.752 29.1309 13.6582 29.3359 13.541 29.5352C13.4355 29.7344 13.3066 29.9043 13.1543 30.0449C13.0137 30.1855 12.8496 30.2559 12.6621 30.2559C12.4512 30.2559 12.2754 30.168 12.1348 29.9922C11.9941 29.8281 11.877 29.6289 11.7832 29.3945C11.7012 29.1602 11.6309 28.9258 11.5723 28.6914C11.5254 28.457 11.4902 28.2695 11.4668 28.1289C11.3965 27.6367 11.332 27.0156 11.2734 26.2656C11.2148 25.5156 11.1621 24.6836 11.1152 23.7695C11.0801 22.8555 11.0508 21.8828 11.0273 20.8516C11.0039 19.8086 10.9805 18.7656 10.957 17.7227C10.9453 16.668 10.9336 15.6367 10.9219 14.6289C10.9219 13.6094 10.916 12.6602 10.9043 11.7812C10.9043 10.8906 10.9043 10.0938 10.9043 9.39062C10.9043 8.6875 10.9043 8.125 10.9043 7.70312C10.6465 8.28906 10.3359 9.0332 9.97266 9.93555C9.62109 10.8379 9.23438 11.8516 8.8125 12.9766C8.40234 14.1016 7.96875 15.3145 7.51172 16.6152C7.06641 17.9043 6.62109 19.2344 6.17578 20.6055C5.74219 21.9766 5.32031 23.3594 4.91016 24.7539C4.51172 26.1484 4.1543 27.502 3.83789 28.8145C3.80273 28.9316 3.75586 29.0723 3.69727 29.2363C3.65039 29.4121 3.58594 29.5762 3.50391 29.7285C3.42188 29.8809 3.31641 30.0098 3.1875 30.1152C3.07031 30.2324 2.92383 30.291 2.74805 30.291C2.58398 30.291 2.4375 30.2383 2.30859 30.1328C2.17969 30.0273 2.06836 29.8984 1.97461 29.7461C1.89258 29.6055 1.82227 29.4473 1.76367 29.2715C1.7168 29.1074 1.6875 28.9551 1.67578 28.8145C1.61719 28.5215 1.56445 28.1992 1.51758 27.8477C1.48242 27.4961 1.44727 27.1328 1.41211 26.7578C1.38867 26.3945 1.36523 26.0312 1.3418 25.668C1.31836 25.3164 1.29492 24.9883 1.27148 24.6836C1.14258 23.0781 1.04883 21.4902 0.990234 19.9199C0.943359 18.3496 0.919922 16.7676 0.919922 15.1738C0.919922 13.6035 0.943359 12.0449 0.990234 10.498C1.04883 8.95117 1.13086 7.38672 1.23633 5.80469C1.27148 5.34766 1.32422 4.83789 1.39453 4.27539C1.46484 3.70117 1.59961 3.16211 1.79883 2.6582C2.00977 2.1543 2.30859 1.73242 2.69531 1.39258C3.09375 1.05273 3.63281 0.882812 4.3125 0.882812C4.47656 0.882812 4.61719 0.923828 4.73438 1.00586C4.85156 1.07617 4.91016 1.20508 4.91016 1.39258V1.56836C4.80469 2.27148 4.69922 2.97461 4.59375 3.67773C4.48828 4.36914 4.37695 5.07813 4.25977 5.80469C3.97852 8.14844 3.73828 10.4922 3.53906 12.8359C3.35156 15.168 3.25781 17.5176 3.25781 19.8848C3.25781 20.8105 3.27539 21.7246 3.31055 22.627C3.3457 23.5293 3.41016 24.4375 3.50391 25.3516C4.3125 22.8438 5.02148 20.623 5.63086 18.6895C6.25195 16.7559 6.79688 15.0625 7.26562 13.6094C7.73438 12.1562 8.12695 10.9199 8.44336 9.90039C8.77148 8.86914 9.04688 8.00781 9.26953 7.31641C9.49219 6.625 9.66797 6.07422 9.79688 5.66406C9.92578 5.24219 10.0312 4.91992 10.1133 4.69727C10.1953 4.46289 10.2539 4.29297 10.2891 4.1875C10.3242 4.08203 10.3594 3.98828 10.3945 3.90625C10.5703 3.50781 10.8105 3.15039 11.1152 2.83398C11.4199 2.51758 11.8125 2.35938 12.293 2.35938C12.6211 2.35938 12.8848 2.44141 13.084 2.60547C13.2949 2.76953 13.459 2.97461 13.5762 3.2207C13.6934 3.4668 13.7695 3.73633 13.8047 4.0293C13.8516 4.32227 13.875 4.5918 13.875 4.83789C13.8516 6.6543 13.7988 8.45312 13.7168 10.2344C13.6348 12.0039 13.5645 13.7617 13.5059 15.5078C13.4473 17.2539 13.418 18.9883 13.418 20.7109C13.4297 22.4336 13.5117 24.1504 13.6641 25.8613C14.1328 24.4785 14.5664 23.1777 14.9648 21.959C15.3633 20.7285 15.7383 19.5566 16.0898 18.4434C16.4531 17.3301 16.7988 16.2578 17.127 15.2266C17.4668 14.1953 17.8125 13.1758 18.1641 12.168C18.5273 11.1602 18.9023 10.1523 19.2891 9.14453C19.6758 8.13672 20.1035 7.09961 20.5723 6.0332C20.6777 5.82227 20.7949 5.61133 20.9238 5.40039C21.0527 5.17773 21.1992 4.97852 21.3633 4.80273C21.5273 4.62695 21.7148 4.48047 21.9258 4.36328C22.1367 4.24609 22.3711 4.1875 22.6289 4.1875C22.9922 4.1875 23.2793 4.30469 23.4902 4.53906C23.7012 4.77344 23.8594 5.05469 23.9648 5.38281C24.082 5.71094 24.1582 6.05664 24.1934 6.41992C24.2285 6.77148 24.2461 7.07031 24.2461 7.31641C24.2461 8.39453 24.2109 9.58984 24.1406 10.9023C24.0703 12.2031 24.0176 13.5566 23.9824 14.9629C23.959 16.3691 23.9766 17.793 24.0352 19.2344C24.0938 20.6758 24.252 22.0703 24.5098 23.418C24.7676 24.7656 25.1484 26.0254 25.6523 27.1973C26.1562 28.3691 26.8359 29.3887 27.6914 30.2559C28.5469 31.1348 29.6016 31.8262 30.8555 32.3301C32.1211 32.834 33.6387 33.0859 35.4082 33.0859C35.6777 33.0859 35.9355 33.0625 36.1816 33.0156C36.4395 32.9805 36.6855 32.9102 36.9199 32.8047L37.0254 33.1562ZM39.2754 22.4863C38.9707 22.9316 38.6016 23.3477 38.168 23.7344C37.7461 24.1211 37.2773 24.4551 36.7617 24.7363C36.2578 25.0176 35.7246 25.2402 35.1621 25.4043C34.6113 25.5684 34.0547 25.6504 33.4922 25.6504C32.6953 25.6504 31.9512 25.5449 31.2598 25.334C30.5684 25.1348 29.9648 24.8242 29.4492 24.4023C28.9336 23.9805 28.5293 23.4531 28.2363 22.8203C27.9434 22.1758 27.7969 21.4258 27.7969 20.5703C27.7969 19.7266 27.9492 18.9414 28.2539 18.2148C28.5703 17.4766 28.998 16.8379 29.5371 16.2988C30.0879 15.748 30.7324 15.3145 31.4707 14.998C32.209 14.6816 33 14.5234 33.8438 14.5234C34.2422 14.5234 34.6113 14.582 34.9512 14.6992C35.3027 14.8047 35.6074 14.9688 35.8652 15.1914C36.123 15.4023 36.3223 15.666 36.4629 15.9824C36.6152 16.2988 36.6914 16.6621 36.6914 17.0723C36.6914 17.5645 36.5918 17.998 36.3926 18.373C36.1934 18.748 35.9297 19.0762 35.6016 19.3574C35.2734 19.6387 34.8984 19.873 34.4766 20.0605C34.0664 20.248 33.6328 20.4004 33.1758 20.5176C32.7305 20.6348 32.2852 20.7227 31.8398 20.7812C31.4062 20.8281 31.0078 20.8516 30.6445 20.8516H30.2227C30.375 21.918 30.7969 22.7324 31.4883 23.2949C32.1797 23.8574 33.1348 24.1387 34.3535 24.1387C35.2207 24.1387 36.0645 23.9863 36.8848 23.6816C37.7168 23.377 38.4668 22.9551 39.1348 22.416L39.2754 22.4863ZM30.1699 20.3242H30.6094C31.0312 20.3242 31.4648 20.2598 31.9102 20.1309C32.3555 19.9902 32.7539 19.791 33.1055 19.5332C33.4688 19.2637 33.7676 18.9355 34.002 18.5488C34.2363 18.1621 34.3535 17.7227 34.3535 17.2305C34.3535 16.75 34.248 16.3516 34.0371 16.0352C33.8379 15.7188 33.4863 15.5605 32.9824 15.5605C32.4668 15.5605 32.0273 15.7188 31.6641 16.0352C31.3125 16.3398 31.0254 16.7207 30.8027 17.1777C30.5801 17.623 30.416 18.0977 30.3105 18.6016C30.2168 19.0938 30.1699 19.5332 30.1699 19.9199V20.3242ZM49.6113 22.4863C49.3066 22.9316 48.9375 23.3477 48.5039 23.7344C48.082 24.1211 47.6133 24.4551 47.0977 24.7363C46.5938 25.0176 46.0605 25.2402 45.498 25.4043C44.9473 25.5684 44.3906 25.6504 43.8281 25.6504C43.0312 25.6504 42.2871 25.5449 41.5957 25.334C40.9043 25.1348 40.3008 24.8242 39.7852 24.4023C39.2695 23.9805 38.8652 23.4531 38.5723 22.8203C38.2793 22.1758 38.1328 21.4258 38.1328 20.5703C38.1328 19.7266 38.2852 18.9414 38.5898 18.2148C38.9062 17.4766 39.334 16.8379 39.873 16.2988C40.4238 15.748 41.0684 15.3145 41.8066 14.998C42.5449 14.6816 43.3359 14.5234 44.1797 14.5234C44.5781 14.5234 44.9473 14.582 45.2871 14.6992C45.6387 14.8047 45.9434 14.9688 46.2012 15.1914C46.459 15.4023 46.6582 15.666 46.7988 15.9824C46.9512 16.2988 47.0273 16.6621 47.0273 17.0723C47.0273 17.5645 46.9277 17.998 46.7285 18.373C46.5293 18.748 46.2656 19.0762 45.9375 19.3574C45.6094 19.6387 45.2344 19.873 44.8125 20.0605C44.4023 20.248 43.9688 20.4004 43.5117 20.5176C43.0664 20.6348 42.6211 20.7227 42.1758 20.7812C41.7422 20.8281 41.3438 20.8516 40.9805 20.8516H40.5586C40.7109 21.918 41.1328 22.7324 41.8242 23.2949C42.5156 23.8574 43.4707 24.1387 44.6895 24.1387C45.5566 24.1387 46.4004 23.9863 47.2207 23.6816C48.0527 23.377 48.8027 22.9551 49.4707 22.416L49.6113 22.4863ZM40.5059 20.3242H40.9453C41.3672 20.3242 41.8008 20.2598 42.2461 20.1309C42.6914 19.9902 43.0898 19.791 43.4414 19.5332C43.8047 19.2637 44.1035 18.9355 44.3379 18.5488C44.5723 18.1621 44.6895 17.7227 44.6895 17.2305C44.6895 16.75 44.584 16.3516 44.373 16.0352C44.1738 15.7188 43.8223 15.5605 43.3184 15.5605C42.8027 15.5605 42.3633 15.7188 42 16.0352C41.6484 16.3398 41.3613 16.7207 41.1387 17.1777C40.916 17.623 40.752 18.0977 40.6465 18.6016C40.5527 19.0938 40.5059 19.5332 40.5059 19.9199V20.3242ZM60.5449 22.4863C60.2871 22.9199 59.9824 23.3242 59.6309 23.6992C59.291 24.0742 58.9102 24.4023 58.4883 24.6836C58.0781 24.9648 57.6328 25.1816 57.1523 25.334C56.6719 25.498 56.1738 25.5801 55.6582 25.5801C54.8965 25.5801 54.2227 25.4512 53.6367 25.1934C53.0625 24.9355 52.5645 24.5898 52.1426 24.1562C51.7207 23.7109 51.3691 23.1953 51.0879 22.6094C50.8066 22.0234 50.584 21.4141 50.4199 20.7812C50.2559 20.1367 50.1387 19.4805 50.0684 18.8125C49.998 18.1445 49.9629 17.5059 49.9629 16.8965C49.9629 16.334 49.9863 15.7598 50.0332 15.1738C50.0801 14.5762 50.1504 13.9668 50.2441 13.3457C49.8809 13.3574 49.5234 13.3633 49.1719 13.3633C48.832 13.3633 48.4922 13.3633 48.1523 13.3633C47.9297 13.3633 47.6777 13.3574 47.3965 13.3457C47.1152 13.334 46.8516 13.2871 46.6055 13.2051C46.3594 13.123 46.1543 13 45.9902 12.8359C45.8262 12.6719 45.7441 12.4316 45.7441 12.1152C45.7441 11.9395 45.7793 11.7988 45.8496 11.6934C45.9082 11.5879 45.9961 11.5117 46.1133 11.4648C46.2188 11.4062 46.3477 11.3711 46.5 11.3594C46.6406 11.3359 46.7871 11.3242 46.9395 11.3242C47.1152 11.3242 47.5312 11.3535 48.1875 11.4121C48.8438 11.4707 49.6348 11.5352 50.5605 11.6055C50.8535 10.2227 51.2285 8.86328 51.6855 7.52734C52.1543 6.19141 52.6816 4.97266 53.2676 3.87109H53.5137C53.1387 5.14844 52.8047 6.4375 52.5117 7.73828C52.2305 9.03906 52.0195 10.3574 51.8789 11.6934C52.7344 11.752 53.6133 11.8047 54.5156 11.8516C55.4297 11.8867 56.3203 11.9043 57.1875 11.9043C58.4648 11.9043 59.502 11.8926 60.2988 11.8691C61.0957 11.8457 61.7227 11.8164 62.1797 11.7812C62.7188 11.7344 63.123 11.6875 63.3926 11.6406L63.4629 11.9395C62.7598 12.1035 61.957 12.2617 61.0547 12.4141C60.1523 12.5547 59.1914 12.6836 58.1719 12.8008C57.1523 12.9062 56.0977 13 55.0078 13.082C53.918 13.1641 52.834 13.2285 51.7559 13.2754C51.7324 13.5098 51.7207 13.75 51.7207 13.9961C51.7207 14.2305 51.7207 14.4648 51.7207 14.6992C51.7207 15.2617 51.7441 15.8828 51.791 16.5625C51.8496 17.2422 51.9492 17.9277 52.0898 18.6191C52.2305 19.2988 52.418 19.9668 52.6523 20.623C52.8984 21.2676 53.2148 21.8418 53.6016 22.3457C54 22.8379 54.4746 23.2363 55.0254 23.541C55.5762 23.8457 56.2266 23.998 56.9766 23.998C57.668 23.998 58.2891 23.8457 58.8398 23.541C59.4023 23.2363 59.9355 22.8613 60.4395 22.416L60.5449 22.4863Z" fill="white"/>
</svg>
