<svg width="56" height="55" viewBox="0 0 56 55" fill="none" xmlns="http://www.w3.org/2000/svg">
<g filter="url(#filter0_d_501_698)">
<path d="M32.1227 43.9452C32.1227 42.3298 32.1278 40.1627 32.1213 38.6425C32.1155 37.408 31.8562 37.1417 30.6432 37.1365C28.8394 37.1291 27.0356 37.1298 25.2318 37.1361C23.9955 37.1404 23.7604 37.3597 23.7408 38.6276C23.7169 40.1455 23.735 42.3115 23.735 43.8988C23.3937 43.9382 23.155 43.9886 22.916 43.9897C21.2812 43.9966 19.6462 44.0101 18.0116 43.9886C16.0716 43.9631 15.6135 43.478 15.6272 41.5772C15.6394 39.859 15.6125 32.5472 15.6596 30.8299C15.6691 30.4877 15.8486 30.0591 16.0969 29.8281C19.3567 26.7967 22.6379 23.7882 25.9252 20.7864C27.2366 19.5891 28.7842 19.5748 30.0976 20.7846C33.393 23.8194 36.6696 26.8747 39.9318 29.9449C40.1613 30.1609 40.3211 30.5646 40.3278 30.8847C40.3363 31.2999 40.3724 38.6988 40.3408 41.8888C40.3289 43.082 39.7406 43.8806 38.6374 43.9219C36.5042 44.0018 34.3662 43.9452 32.1227 43.9452Z" fill="#FAFAFA"/>
<path d="M27.617 11.4307C29.2236 11.4274 30.0603 11.9604 30.8118 12.6883C33.7073 15.4917 36.608 18.2904 39.5051 21.0921C40.8423 22.3855 42.1763 23.6825 43.5108 24.9787C43.6522 25.1163 43.7927 25.2559 43.9232 25.4037C44.6659 26.2449 44.7657 27.1478 44.1982 27.8547C43.5998 28.5997 42.4008 28.7741 41.508 28.2266C41.2708 28.0809 41.0567 27.8906 40.853 27.6983C37.5551 24.5807 34.2575 21.463 30.9662 18.3382C28.5297 16.0251 27.5968 16.0063 25.1355 18.2929C21.8524 21.3433 18.5955 24.422 15.2865 27.4441C14.8197 27.8705 14.1513 28.1636 13.5275 28.3084C12.7086 28.4983 12.0324 28.0823 11.6509 27.3276C11.2677 26.5698 11.4201 25.8376 11.9604 25.2071C12.2704 24.8451 12.6361 24.5295 12.9856 24.2027C17.0421 20.4102 21.1043 16.6247 25.1539 12.8248C26.0033 12.028 26.9287 11.4414 27.617 11.4307Z" fill="#FAFAFA"/>
</g>
<defs>
<filter id="filter0_d_501_698" x="0.437988" y="0.430664" width="55.124" height="54.5696" filterUnits="userSpaceOnUse" color-interpolation-filters="sRGB">
<feFlood flood-opacity="0" result="BackgroundImageFix"/>
<feColorMatrix in="SourceAlpha" type="matrix" values="0 0 0 0 0 0 0 0 0 0 0 0 0 0 0 0 0 0 127 0" result="hardAlpha"/>
<feOffset/>
<feGaussianBlur stdDeviation="5.5"/>
<feComposite in2="hardAlpha" operator="out"/>
<feColorMatrix type="matrix" values="0 0 0 0 0.77 0 0 0 0 0.7125 0 0 0 0 1 0 0 0 0.8 0"/>
<feBlend mode="normal" in2="BackgroundImageFix" result="effect1_dropShadow_501_698"/>
<feBlend mode="normal" in="SourceGraphic" in2="effect1_dropShadow_501_698" result="shape"/>
</filter>
</defs>
</svg>
